<svg width="21" height="21" viewBox="0 0 21 21" fill="none" xmlns="http://www.w3.org/2000/svg">
<circle cx="10.5" cy="10.5" r="10.5" fill="white" fill-opacity="0.63"/>
<path d="M12.75 6L15 8.25V6H12.75ZM15 12.75L12.75 15H15V12.75ZM8.25 15L6 12.75V15H8.25ZM6 8.25L8.25 6H6V8.25ZM13.2844 7.71563C11.7459 6.17719 9.25406 6.17719 7.71563 7.71563C6.17719 9.25406 6.17719 11.7459 7.71563 13.2844C9.25406 14.8228 11.7459 14.8228 13.2844 13.2844C14.8228 11.7459 14.8228 9.25406 13.2844 7.71563ZM12.6656 12.6656C11.4703 13.8609 9.52969 13.8609 8.33437 12.6656C7.13906 11.4703 7.13906 9.52969 8.33437 8.33437C9.52969 7.13906 11.4703 7.13906 12.6656 8.33437C13.8609 9.52969 13.8609 11.4703 12.6656 12.6656Z" fill="#283618"/>
</svg>
