<svg width="21" height="13" viewBox="0 0 21 13" fill="none" xmlns="http://www.w3.org/2000/svg">
<path d="M0.957775 1.04493C1.51305 1.33771 9.22636 5.54268 9.51409 5.69411C9.80182 5.84555 10.0946 5.91623 10.5489 5.91623C11.0032 5.91623 11.296 5.84555 11.5838 5.69411C11.8715 5.54268 19.5848 1.33771 20.1401 1.04493C20.347 0.938923 20.6954 0.7471 20.7711 0.530037C20.9023 0.146391 20.761 0 20.2007 0H10.5489H0.897199C0.336874 0 0.195531 0.151439 0.326778 0.530037C0.402498 0.752148 0.750808 0.938923 0.957775 1.04493Z" fill="#283618"/>
<path d="M20.5806 1.27212C20.1667 1.48414 16.4513 4.12928 13.993 5.71939L18.1424 10.3888C18.2434 10.4897 18.2888 10.6109 18.2333 10.6714C18.1727 10.727 18.0415 10.6967 17.9355 10.6008L12.9581 6.40087C12.206 6.88547 11.676 7.21864 11.5851 7.26912C11.1964 7.46599 10.9238 7.49123 10.5503 7.49123C10.1767 7.49123 9.90413 7.46599 9.51543 7.26912C9.41952 7.21864 8.89453 6.88547 8.14238 6.40087L3.16508 10.6008C3.06412 10.7017 2.92782 10.732 2.86725 10.6714C2.80667 10.6159 2.85211 10.4897 2.95306 10.3888L7.09745 5.71939C4.63909 4.12928 0.883395 1.48414 0.469462 1.27212C0.0252398 1.04496 0 1.31251 0 1.51947C0 1.72644 0 11.8678 0 11.8678C0 12.3373 0.691572 12.9228 1.18627 12.9228H10.5503H19.9143C20.409 12.9228 20.9996 12.3322 20.9996 11.8678C20.9996 11.8678 20.9996 1.72139 20.9996 1.51947C20.9996 1.30746 21.0299 1.04496 20.5806 1.27212Z" fill="#283618"/>
</svg>
