<svg width="124" height="117" viewBox="0 0 124 117" fill="none" xmlns="http://www.w3.org/2000/svg">
<path d="M123.394 1.6104C123.368 1.17422 123.177 0.764437 122.858 0.465023C122.54 0.165609 122.119 -0.000761872 121.681 2.62307e-06C82.5307 2.62307e-06 66.5236 22.4057 61.7162 40.7808C56.9087 22.4146 40.9017 2.62307e-06 1.75086 2.62307e-06C1.31364 -0.000761872 0.892682 0.165609 0.574248 0.465023C0.255814 0.764437 0.0640186 1.17422 0.0381661 1.6104C-0.0184274 2.55402 -1.15328 24.8942 14.5053 41.4982C24.9304 52.5477 40.2255 58.3017 60.0035 58.6143V114.826C60.0219 115.268 60.2106 115.686 60.53 115.992C60.8495 116.299 61.275 116.469 61.7177 116.469C62.1603 116.469 62.5858 116.299 62.9053 115.992C63.2247 115.686 63.4134 115.268 63.4319 114.826V58.6143C83.2098 58.3017 98.5079 52.5477 108.927 41.4982C124.586 24.8942 123.451 2.55402 123.394 1.6104ZM60.0035 55.1911C41.2383 54.8934 26.7771 49.4996 17.0281 39.1794C4.71458 26.1474 3.50824 8.78128 3.43973 3.45893C48.1188 4.24181 60.0035 36.2235 60.0035 53.2294V55.1911ZM106.395 39.1764C96.6433 49.4966 82.1911 54.8815 63.4199 55.1881V53.2086C63.4199 36.2027 75.2927 4.22097 119.978 3.4381C119.927 8.7783 118.718 26.1444 106.395 39.1764Z" fill="#283618"/>
</svg>
