<svg width="17" height="14" viewBox="0 0 17 14" fill="none" xmlns="http://www.w3.org/2000/svg">
<path d="M15.9091 2.54568H5.09095C4.92218 2.54568 4.76032 2.47863 4.64098 2.35929C4.52164 2.23995 4.45459 2.07809 4.45459 1.90931C4.45459 1.74054 4.52164 1.57868 4.64098 1.45934C4.76032 1.33999 4.92218 1.27295 5.09095 1.27295H15.9091C16.0779 1.27295 16.2398 1.33999 16.3591 1.45934C16.4785 1.57868 16.5455 1.74054 16.5455 1.90931C16.5455 2.07809 16.4785 2.23995 16.3591 2.35929C16.2398 2.47863 16.0779 2.54568 15.9091 2.54568Z" fill="#7F904A"/>
<path d="M2.54545 2.54568H0.636364C0.467589 2.54568 0.305728 2.47863 0.186387 2.35929C0.0670452 2.23995 0 2.07809 0 1.90931C0 1.74054 0.0670452 1.57868 0.186387 1.45934C0.305728 1.33999 0.467589 1.27295 0.636364 1.27295H2.54545C2.71423 1.27295 2.87609 1.33999 2.99543 1.45934C3.11477 1.57868 3.18182 1.74054 3.18182 1.90931C3.18182 2.07809 3.11477 2.23995 2.99543 2.35929C2.87609 2.47863 2.71423 2.54568 2.54545 2.54568Z" fill="#7F904A"/>
<path d="M11.4545 7.6365H0.636364C0.467589 7.6365 0.305728 7.56945 0.186387 7.45011C0.0670452 7.33077 0 7.16891 0 7.00013C0 6.83136 0.0670452 6.6695 0.186387 6.55016C0.305728 6.43081 0.467589 6.36377 0.636364 6.36377H11.4545C11.6233 6.36377 11.7852 6.43081 11.9045 6.55016C12.0239 6.6695 12.0909 6.83136 12.0909 7.00013C12.0909 7.16891 12.0239 7.33077 11.9045 7.45011C11.7852 7.56945 11.6233 7.6365 11.4545 7.6365Z" fill="#7F904A"/>
<path d="M5.09091 12.7273H0.636364C0.467589 12.7273 0.305728 12.6603 0.186387 12.5409C0.0670452 12.4216 0 12.2597 0 12.091C0 11.9222 0.0670452 11.7603 0.186387 11.641C0.305728 11.5216 0.467589 11.4546 0.636364 11.4546H5.09091C5.25968 11.4546 5.42154 11.5216 5.54089 11.641C5.66023 11.7603 5.72727 11.9222 5.72727 12.091C5.72727 12.2597 5.66023 12.4216 5.54089 12.5409C5.42154 12.6603 5.25968 12.7273 5.09091 12.7273Z" fill="#7F904A"/>
<path d="M3.81827 3.81818C3.44069 3.81818 3.07159 3.70622 2.75764 3.49644C2.44369 3.28667 2.199 2.98851 2.0545 2.63967C1.91001 2.29083 1.8722 1.90697 1.94586 1.53665C2.01953 1.16632 2.20135 0.826152 2.46834 0.559161C2.73533 0.292169 3.0755 0.110346 3.44583 0.0366835C3.81615 -0.0369792 4.20001 0.000827182 4.54885 0.145322C4.89769 0.289816 5.19585 0.534509 5.40562 0.848457C5.6154 1.16241 5.72736 1.53151 5.72736 1.90909C5.72736 2.41541 5.52623 2.901 5.1682 3.25902C4.81018 3.61705 4.32459 3.81818 3.81827 3.81818ZM3.81827 1.27273C3.69241 1.27273 3.56938 1.31005 3.46473 1.37997C3.36008 1.4499 3.27851 1.54929 3.23035 1.66557C3.18218 1.78185 3.16958 1.9098 3.19414 2.03324C3.21869 2.15668 3.2793 2.27007 3.36829 2.35907C3.45729 2.44807 3.57068 2.50867 3.69412 2.53323C3.81757 2.55778 3.94552 2.54518 4.0618 2.49701C4.17808 2.44885 4.27746 2.36729 4.34739 2.26264C4.41731 2.15799 4.45463 2.03495 4.45463 1.90909C4.45463 1.74032 4.38759 1.57846 4.26825 1.45911C4.14891 1.33977 3.98705 1.27273 3.81827 1.27273Z" fill="#7F904A"/>
<path d="M12.7275 8.909C12.3499 8.909 11.9808 8.79704 11.6668 8.58726C11.3529 8.37749 11.1082 8.07933 10.9637 7.73049C10.8192 7.38165 10.7814 6.99779 10.855 6.62747C10.9287 6.25714 11.1105 5.91697 11.3775 5.64998C11.6445 5.38299 11.9847 5.20117 12.355 5.1275C12.7253 5.05384 13.1092 5.09165 13.458 5.23614C13.8069 5.38064 14.105 5.62533 14.3148 5.93928C14.5246 6.25323 14.6365 6.62233 14.6365 6.99991C14.6365 7.50623 14.4354 7.99182 14.0774 8.34984C13.7194 8.70787 13.2338 8.909 12.7275 8.909ZM12.7275 6.36355C12.6016 6.36355 12.4786 6.40087 12.3739 6.4708C12.2693 6.54072 12.1877 6.64011 12.1395 6.75639C12.0914 6.87267 12.0788 7.00062 12.1033 7.12406C12.1279 7.2475 12.1885 7.36089 12.2775 7.44989C12.3665 7.53889 12.4799 7.59949 12.6033 7.62405C12.7267 7.6486 12.8547 7.636 12.971 7.58784C13.0873 7.53967 13.1866 7.45811 13.2566 7.35346C13.3265 7.24881 13.3638 7.12577 13.3638 6.99991C13.3638 6.83114 13.2968 6.66928 13.1774 6.54994C13.0581 6.43059 12.8962 6.36355 12.7275 6.36355Z" fill="#7F904A"/>
<path d="M6.36368 13.9998C5.9861 13.9998 5.617 13.8879 5.30305 13.6781C4.9891 13.4683 4.74441 13.1702 4.59991 12.8213C4.45542 12.4725 4.41761 12.0886 4.49127 11.7183C4.56494 11.348 4.74676 11.0078 5.01375 10.7408C5.28074 10.4738 5.62091 10.292 5.99124 10.2183C6.36156 10.1447 6.74542 10.1825 7.09426 10.327C7.4431 10.4715 7.74126 10.7162 7.95103 11.0301C8.16081 11.344 8.27277 11.7132 8.27277 12.0907C8.27277 12.5971 8.07164 13.0826 7.71361 13.4407C7.35559 13.7987 6.87 13.9998 6.36368 13.9998ZM6.36368 11.4544C6.23782 11.4544 6.11479 11.4917 6.01014 11.5616C5.90549 11.6315 5.82392 11.7309 5.77576 11.8472C5.72759 11.9635 5.71499 12.0914 5.73955 12.2149C5.7641 12.3383 5.82471 12.4517 5.9137 12.5407C6.0027 12.6297 6.11609 12.6903 6.23953 12.7149C6.36298 12.7394 6.49093 12.7268 6.60721 12.6787C6.72349 12.6305 6.82287 12.5489 6.8928 12.4443C6.96272 12.3396 7.00005 12.2166 7.00005 12.0907C7.00005 11.922 6.933 11.7601 6.81366 11.6408C6.69432 11.5214 6.53246 11.4544 6.36368 11.4544Z" fill="#7F904A"/>
<path d="M15.9092 7.6365H14.0001C13.8314 7.6365 13.6695 7.56945 13.5502 7.45011C13.4308 7.33077 13.3638 7.16891 13.3638 7.00013C13.3638 6.83136 13.4308 6.6695 13.5502 6.55016C13.6695 6.43081 13.8314 6.36377 14.0001 6.36377H15.9092C16.078 6.36377 16.2399 6.43081 16.3592 6.55016C16.4785 6.6695 16.5456 6.83136 16.5456 7.00013C16.5456 7.16891 16.4785 7.33077 16.3592 7.45011C16.2399 7.56945 16.078 7.6365 15.9092 7.6365Z" fill="#7F904A"/>
<path d="M15.9091 12.7273H7.63636C7.46759 12.7273 7.30573 12.6603 7.18639 12.5409C7.06705 12.4216 7 12.2597 7 12.091C7 11.9222 7.06705 11.7603 7.18639 11.641C7.30573 11.5216 7.46759 11.4546 7.63636 11.4546H15.9091C16.0779 11.4546 16.2397 11.5216 16.3591 11.641C16.4784 11.7603 16.5455 11.9222 16.5455 12.091C16.5455 12.2597 16.4784 12.4216 16.3591 12.5409C16.2397 12.6603 16.0779 12.7273 15.9091 12.7273Z" fill="#7F904A"/>
</svg>
