<svg width="134" height="67" viewBox="0 0 134 67" fill="none" xmlns="http://www.w3.org/2000/svg">
<path d="M9.1432 17.1637L0.488941 16.8703V14.5234H20.6822V17.5059L12.0279 17.2615L12.7125 47.2824H8.40978L9.1432 17.1637Z" fill="#1A0707"/>
<path d="M48.0895 39.9239C48.7164 41.0317 49.5157 41.9174 50.4876 42.5811C51.4594 43.2448 52.5541 43.5959 53.7717 43.6346C55.0044 43.6649 56.2994 43.3081 57.6568 42.564C58.803 41.9357 59.6848 41.2365 60.3022 40.4666C60.9265 39.6732 61.3668 38.9023 61.6233 38.1537C61.8715 37.3899 62.0054 36.7576 62.0249 36.2565L65.25 37.5778C65.1491 38.5745 64.8855 39.5428 64.4592 40.4825C64.048 41.414 63.4082 42.3042 62.5397 43.1529C61.6795 44.0167 60.5105 44.8537 59.0325 45.6639C57.0417 46.7552 55.0834 47.2796 53.1575 47.2369C51.2384 47.171 49.4734 46.5989 47.8624 45.5206C46.2432 44.4273 44.8962 42.9003 43.8214 40.9397C42.8293 39.1299 42.3059 37.2986 42.2512 35.4456C42.1883 33.5776 42.6266 31.8369 43.5662 30.2235C44.5209 28.6018 45.9936 27.2453 47.9844 26.154C49.8093 25.1536 51.6036 24.6701 53.3675 24.7035C55.1383 24.7135 56.7734 25.2097 58.273 26.1921C59.7877 27.1662 61.0741 28.6185 62.1324 30.5489C62.1985 30.6696 62.3109 30.8924 62.4694 31.2174C62.6197 31.5273 62.7203 31.7467 62.7714 31.8756L48.0895 39.9239ZM57.4594 30.9335C57.1053 30.3234 56.5523 29.7439 55.8003 29.1951C55.0635 28.638 54.1733 28.3022 53.1298 28.1877C52.0864 28.0732 50.9237 28.3673 49.6418 29.0701C48.3146 29.7976 47.3844 30.641 46.8511 31.6002C46.3328 32.5511 46.0878 33.4994 46.1158 34.4451C46.1356 35.3757 46.2972 36.1893 46.6007 36.886L57.4594 30.9335Z" fill="#655303"/>
<path d="M85.5104 36.768C85.4932 38.0407 85.218 39.2016 84.6848 40.2507C84.1517 41.2999 83.3605 42.134 82.3114 42.7532C81.2451 43.3724 79.9379 43.6819 78.39 43.6819C77.0829 43.6819 75.9736 43.4927 75.062 43.1144C74.1333 42.7188 73.3766 42.2544 72.7918 41.7213C72.207 41.1709 71.7856 40.6807 71.5277 40.2507L69.3348 42.9596C69.9024 43.7851 70.5989 44.5075 71.4245 45.1266C72.2328 45.7458 73.2218 46.2188 74.3913 46.5456C75.5608 46.8895 76.9883 47.0615 78.6738 47.0615C80.9441 47.0615 82.9134 46.58 84.5817 45.6168C86.2327 44.6365 87.5055 43.2864 88.3998 41.5665C89.2942 39.8294 89.7413 37.8429 89.7413 35.607C89.7413 33.5432 89.32 31.6857 88.4772 30.0346C87.6345 28.3663 86.4133 27.0506 84.8138 26.0874C83.1971 25.1243 81.2537 24.6427 78.9834 24.6427C76.9023 24.6427 75.0964 25.0813 73.5657 25.9584C72.0178 26.8184 70.8225 28.0395 69.9798 29.6218C69.1198 31.2041 68.6898 33.096 68.6898 35.2975C68.6898 35.435 68.6984 35.6844 68.7156 36.0456C68.7328 36.3896 68.75 36.6304 68.7672 36.768H85.5104ZM72.9724 33.3884C72.9896 32.6832 73.196 31.9093 73.5915 31.0665C73.9699 30.2238 74.5891 29.5014 75.449 28.8995C76.309 28.2975 77.4699 27.9965 78.9318 27.9965C80.4453 27.9965 81.6664 28.2889 82.5952 28.8737C83.5067 29.4584 84.1775 30.1722 84.6075 31.0149C85.0374 31.8405 85.2868 32.6316 85.3556 33.3884H72.9724Z" fill="#283618"/>
<path d="M105.385 20.5315V23.2025H92.754V20.5315H105.385ZM96.7001 14.1901H99.7847V40.0899C99.7847 41.1928 99.9742 42.0601 100.353 42.692C100.732 43.3123 101.226 43.7546 101.835 44.0188C102.444 44.2716 103.093 44.398 103.783 44.398C104.185 44.398 104.529 44.375 104.816 44.329C105.104 44.2716 105.356 44.2141 105.575 44.1567L106.229 46.9311C105.931 47.046 105.563 47.1493 105.127 47.2412C104.69 47.3446 104.15 47.3963 103.507 47.3963C102.381 47.3963 101.295 47.1493 100.25 46.6554C99.216 46.1614 98.3659 45.4261 97.6996 44.4497C97.0333 43.4732 96.7001 42.2612 96.7001 40.8137V14.1901Z" fill="#1A0707"/>
<path d="M39.427 25.1268C39.422 25.0425 39.385 24.9634 39.3235 24.9056C39.262 24.8478 39.1807 24.8157 39.0963 24.8158C31.5369 24.8158 28.4462 29.142 27.518 32.6899C26.5897 29.1437 23.499 24.8158 15.9396 24.8158C15.8552 24.8157 15.7739 24.8478 15.7124 24.9056C15.651 24.9634 15.6139 25.0425 15.6089 25.1268C15.598 25.309 15.3789 29.6225 18.4023 32.8285C20.4152 34.9619 23.3685 36.0729 27.1873 36.1333V46.9869C27.1908 47.0723 27.2273 47.1529 27.2889 47.2121C27.3506 47.2712 27.4328 47.3042 27.5182 47.3042C27.6037 47.3042 27.6859 47.2712 27.7476 47.2121C27.8092 47.1529 27.8457 47.0723 27.8492 46.9869V36.1333C31.668 36.0729 34.6219 34.9619 36.6336 32.8285C39.657 29.6225 39.4379 25.309 39.427 25.1268ZM27.1873 35.4723C23.564 35.4149 20.7718 34.3734 18.8894 32.3807C16.5119 29.8645 16.2789 26.5113 16.2657 25.4837C24.8925 25.6348 27.1873 31.81 27.1873 35.0936V35.4723ZM36.1448 32.3802C34.2618 34.3728 31.4713 35.4125 27.8469 35.4718V35.0895C27.8469 31.806 30.1394 25.6308 38.7673 25.4797C38.7575 26.5108 38.524 29.8639 36.1448 32.3802Z" fill="#283618"/>
<path d="M133.036 25.1268C133.031 25.0425 132.994 24.9634 132.933 24.9056C132.871 24.8478 132.79 24.8157 132.706 24.8158C125.146 24.8158 122.056 29.142 121.127 32.6899C120.199 29.1437 117.108 24.8158 109.549 24.8158C109.465 24.8157 109.383 24.8478 109.322 24.9056C109.26 24.9634 109.223 25.0425 109.218 25.1268C109.207 25.309 108.988 29.6225 112.012 32.8285C114.025 34.9619 116.978 36.0729 120.797 36.1333V46.9869C120.8 47.0723 120.837 47.1529 120.898 47.2121C120.96 47.2712 121.042 47.3042 121.128 47.3042C121.213 47.3042 121.295 47.2712 121.357 47.2121C121.419 47.1529 121.455 47.0723 121.459 46.9869V36.1333C125.277 36.0729 128.231 34.9619 130.243 32.8285C133.266 29.6225 133.047 25.309 133.036 25.1268ZM120.797 35.4723C117.173 35.4149 114.381 34.3734 112.499 32.3807C110.121 29.8645 109.888 26.5113 109.875 25.4837C118.502 25.6348 120.797 31.81 120.797 35.0936V35.4723ZM129.754 32.3802C127.871 34.3728 125.081 35.4125 121.456 35.4718V35.0895C121.456 31.806 123.749 25.6308 132.377 25.4797C132.367 26.5108 132.133 29.8639 129.754 32.3802Z" fill="#283618"/>
</svg>
