<svg width="9" height="8" viewBox="0 0 9 8" fill="none" xmlns="http://www.w3.org/2000/svg">
<mask id="path-1-inside-1_741_10864" fill="white">
<path d="M8.99722 0.110614C8.99533 0.0806543 8.98135 0.0525072 8.95813 0.0319413C8.93491 0.0113753 8.90422 -5.23311e-05 8.87234 1.80172e-07C6.01768 1.80172e-07 4.85053 1.53899 4.5 2.80113C4.14947 1.5396 2.98232 1.80172e-07 0.127663 1.80172e-07C0.0957835 -5.23311e-05 0.0650894 0.0113753 0.041871 0.0319413C0.0186525 0.0525072 0.00466788 0.0806543 0.00278286 0.110614C-0.00134362 0.175429 -0.0840905 1.70992 1.05764 2.85041C1.81778 3.60937 2.93302 4.0046 4.37512 4.02607V7.88714C4.37646 7.91749 4.39022 7.94619 4.41351 7.96722C4.43681 7.98826 4.46783 8 4.50011 8C4.53238 8 4.56341 7.98826 4.5867 7.96722C4.61 7.94619 4.62375 7.91749 4.6251 7.88714V4.02607C6.0672 4.0046 7.18265 3.60937 7.94236 2.85041C9.08409 1.70992 9.00134 0.175429 8.99722 0.110614ZM4.37512 3.79094C3.00686 3.77049 1.95244 3.4 1.2416 2.69113C0.343761 1.796 0.255802 0.603164 0.250806 0.237585C3.50856 0.291359 4.37512 2.4881 4.37512 3.6562V3.79094ZM7.75775 2.69093C7.04669 3.3998 5.99292 3.76967 4.62423 3.79073V3.65476C4.62423 2.48667 5.48992 0.289928 8.74811 0.236154C8.74442 0.60296 8.65624 1.79579 7.75775 2.69093Z"/>
</mask>
<path d="M8.99722 0.110614C8.99533 0.0806543 8.98135 0.0525072 8.95813 0.0319413C8.93491 0.0113753 8.90422 -5.23311e-05 8.87234 1.80172e-07C6.01768 1.80172e-07 4.85053 1.53899 4.5 2.80113C4.14947 1.5396 2.98232 1.80172e-07 0.127663 1.80172e-07C0.0957835 -5.23311e-05 0.0650894 0.0113753 0.041871 0.0319413C0.0186525 0.0525072 0.00466788 0.0806543 0.00278286 0.110614C-0.00134362 0.175429 -0.0840905 1.70992 1.05764 2.85041C1.81778 3.60937 2.93302 4.0046 4.37512 4.02607V7.88714C4.37646 7.91749 4.39022 7.94619 4.41351 7.96722C4.43681 7.98826 4.46783 8 4.50011 8C4.53238 8 4.56341 7.98826 4.5867 7.96722C4.61 7.94619 4.62375 7.91749 4.6251 7.88714V4.02607C6.0672 4.0046 7.18265 3.60937 7.94236 2.85041C9.08409 1.70992 9.00134 0.175429 8.99722 0.110614ZM4.37512 3.79094C3.00686 3.77049 1.95244 3.4 1.2416 2.69113C0.343761 1.796 0.255802 0.603164 0.250806 0.237585C3.50856 0.291359 4.37512 2.4881 4.37512 3.6562V3.79094ZM7.75775 2.69093C7.04669 3.3998 5.99292 3.76967 4.62423 3.79073V3.65476C4.62423 2.48667 5.48992 0.289928 8.74811 0.236154C8.74442 0.60296 8.65624 1.79579 7.75775 2.69093Z" fill="#283618"/>
<path d="M8.99722 0.110614L6.00314 0.298995L6.00328 0.301227L8.99722 0.110614ZM8.87234 1.80172e-07V3L8.87728 3L8.87234 1.80172e-07ZM4.5 2.80113L1.60951 3.6043L4.5007 14.0094L7.39059 3.60393L4.5 2.80113ZM0.127663 1.80172e-07L0.122722 3H0.127663V1.80172e-07ZM0.00278286 0.110614L2.99672 0.301227L2.99686 0.298995L0.00278286 0.110614ZM1.05764 2.85041L-1.06252 4.97288L-1.06203 4.97337L1.05764 2.85041ZM4.37512 4.02607H7.37512V1.0704L4.41978 1.0264L4.37512 4.02607ZM4.37512 7.88714H1.37512V7.95353L1.37806 8.01987L4.37512 7.88714ZM4.6251 7.88714L7.62216 8.01987L7.6251 7.95353V7.88714H4.6251ZM4.6251 4.02607L4.58044 1.0264L1.6251 1.0704V4.02607H4.6251ZM7.94236 2.85041L5.82219 0.727935L5.82208 0.728051L7.94236 2.85041ZM4.37512 3.79094L4.3303 6.7906L7.37512 6.8361V3.79094H4.37512ZM1.2416 2.69113L3.35997 0.566871L3.35972 0.566621L1.2416 2.69113ZM0.250806 0.237585L0.300319 -2.76201L-2.79116 -2.81304L-2.74891 0.278573L0.250806 0.237585ZM7.75775 2.69093L5.6404 0.565649L5.6397 0.566343L7.75775 2.69093ZM4.62423 3.79073H1.62423V6.83725L4.67038 6.79038L4.62423 3.79073ZM8.74811 0.236154L11.748 0.26635L11.779 -2.81428L8.6986 -2.76344L8.74811 0.236154ZM11.9913 -0.0777666C11.9378 -0.928347 11.5422 -1.68681 10.9473 -2.21377L6.96897 2.27765C6.42047 1.79182 6.05289 1.08966 6.00314 0.298995L11.9913 -0.0777666ZM10.9473 -2.21377C10.3576 -2.73612 9.61147 -3.00122 8.8674 -3L8.87728 3C8.19697 3.00112 7.51225 2.75887 6.96897 2.27765L10.9473 -2.21377ZM8.87234 -3C6.88269 -3 5.19682 -2.45271 3.89691 -1.43424C2.62035 -0.434075 1.92686 0.855314 1.60941 1.99834L7.39059 3.60393C7.42368 3.48481 7.48902 3.37363 7.59734 3.28877C7.68229 3.22221 8.00732 3 8.87234 3V-3ZM7.39049 1.99797C7.07301 0.855414 6.37958 -0.433755 5.10325 -1.43389C3.80347 -2.4524 2.1176 -3 0.127663 -3V3C0.992383 3 1.31742 3.2222 1.4025 3.28887C1.51104 3.37392 1.57645 3.48532 1.60951 3.6043L7.39049 1.99797ZM0.132605 -3C-0.61144 -3.00122 -1.35756 -2.73614 -1.94729 -2.21377L2.03103 2.27765C1.48773 2.75889 0.803007 3.00112 0.122722 3L0.132605 -3ZM-1.94729 -2.21377C-2.54226 -1.68677 -2.93778 -0.928296 -2.9913 -0.0777666L2.99686 0.298995C2.94712 1.0896 2.57957 1.79179 2.03103 2.27765L-1.94729 -2.21377ZM-2.99116 -0.0799978C-3.00601 0.153358 -3.17551 2.86219 -1.06252 4.97288L3.17781 0.727935C3.11922 0.669406 3.06218 0.571707 3.02581 0.411825C3.00881 0.337064 3.00261 0.273778 3.00068 0.239027C2.99876 0.204505 3.00208 0.217082 2.99672 0.301227L-2.99116 -0.0799978ZM-1.06203 4.97337C0.417073 6.45019 2.38294 6.99674 4.33046 7.02574L4.41978 1.0264C3.4831 1.01246 3.2185 0.76856 3.17732 0.727445L-1.06203 4.97337ZM1.37512 4.02607V7.88714H7.37512V4.02607H1.37512ZM1.37806 8.01987C1.41619 8.88096 1.80582 9.65459 2.40294 10.1938L6.42409 5.74066C6.97462 6.23779 7.33674 6.95402 7.37218 7.7544L1.37806 8.01987ZM2.40294 10.1938C2.99458 10.728 3.74826 11 4.50011 11V5C5.18741 5 5.87903 5.24848 6.42409 5.74066L2.40294 10.1938ZM4.50011 11C5.25198 11 6.00566 10.728 6.59728 10.1938L2.57613 5.74066C3.12117 5.24849 3.81279 5 4.50011 5V11ZM6.59728 10.1938C7.19438 9.65461 7.58402 8.88099 7.62216 8.01987L1.62804 7.7544C1.66348 6.95399 2.02562 6.23777 2.57613 5.74066L6.59728 10.1938ZM7.6251 7.88714V4.02607H1.6251V7.88714H7.6251ZM4.66975 7.02574C6.61686 6.99675 8.58358 6.45038 10.0626 4.97277L5.82208 0.728051C5.78172 0.768365 5.51753 1.01245 4.58044 1.0264L4.66975 7.02574ZM10.0625 4.97288C12.1755 2.86219 12.006 0.153359 11.9912 -0.0799978L6.00328 0.301227C5.99792 0.217081 6.00125 0.204504 5.99933 0.239027C5.99739 0.273777 5.99119 0.337063 5.97419 0.411824C5.93783 0.571706 5.88079 0.669406 5.82219 0.727935L10.0625 4.97288ZM4.41994 0.791272C3.98826 0.784821 3.71355 0.724025 3.55559 0.66857C3.40861 0.616967 3.36491 0.571796 3.35997 0.566871L-0.876777 4.8154C0.559849 6.24804 2.47048 6.76281 4.3303 6.7906L4.41994 0.791272ZM3.35972 0.566621C3.35443 0.561343 3.32071 0.524809 3.28814 0.414714C3.27274 0.362684 3.26256 0.309785 3.25657 0.263577C3.25066 0.218019 3.25046 0.191598 3.25053 0.196598L-2.74891 0.278573C-2.74077 0.874448 -2.62505 3.07238 -0.876526 4.81565L3.35972 0.566621ZM0.201294 3.23718C0.678341 3.24505 0.950496 3.32859 1.08523 3.38648C1.21472 3.44212 1.26875 3.49552 1.29228 3.52199C1.32228 3.55574 1.34626 3.59717 1.36269 3.64329C1.38248 3.69887 1.37512 3.71513 1.37512 3.6562H7.37512C7.37512 2.43055 6.94738 0.852919 5.77696 -0.463948C4.52608 -1.87134 2.65871 -2.72308 0.300319 -2.76201L0.201294 3.23718ZM1.37512 3.6562V3.79094H7.37512V3.6562H1.37512ZM5.6397 0.566343C5.63464 0.571392 5.591 0.616484 5.44407 0.668055C5.28601 0.723532 5.01091 0.784427 4.57807 0.791087L4.67038 6.79038C6.5289 6.76178 8.43873 6.24816 9.8758 4.81552L5.6397 0.566343ZM7.62423 3.79073V3.65476H1.62423V3.79073H7.62423ZM7.62423 3.65476C7.62423 3.71336 7.61693 3.69693 7.63671 3.64135C7.65313 3.59522 7.67707 3.55389 7.70694 3.52027C7.73034 3.49393 7.78422 3.44063 7.9136 3.38504C8.04825 3.32718 8.32041 3.24362 8.79762 3.23575L8.6986 -2.76344C6.34009 -2.72451 4.47261 -1.87282 3.22175 -0.465089C2.05136 0.85209 1.62423 2.42977 1.62423 3.65476H7.62423ZM5.74826 0.205959C5.74836 0.196521 5.74846 0.220856 5.74269 0.265742C5.73687 0.310944 5.72686 0.363194 5.7116 0.414776C5.67935 0.523861 5.64586 0.560213 5.6404 0.565649L9.8751 4.81621C11.6248 3.07308 11.7418 0.875562 11.748 0.26635L5.74826 0.205959Z" fill="#283618" mask="url(#path-1-inside-1_741_10864)"/>
</svg>
