<svg width="263" height="133" viewBox="0 0 263 133" fill="none" xmlns="http://www.w3.org/2000/svg">
<path d="M18.074 34.7763L0.966522 34.1964V29.5571H40.8839V35.4529L23.7764 34.9696L25.1296 94.3141H16.6242L18.074 34.7763Z" fill="#FAFAFA"/>
<path d="M94.9751 78.7772C96.2143 80.967 97.7944 82.7179 99.7155 84.0298C101.637 85.3418 103.801 86.0359 106.208 86.1123C108.644 86.1723 111.204 85.4668 113.887 83.996C116.153 82.7539 117.896 81.3719 119.117 79.8498C120.351 78.2816 121.221 76.7576 121.728 75.2778C122.219 73.7681 122.484 72.5181 122.522 71.5276L128.897 74.1394C128.698 76.1097 128.177 78.0237 127.334 79.8814C126.521 81.7228 125.257 83.4824 123.54 85.1601C121.839 86.8677 119.528 88.5222 116.607 90.1238C112.672 92.2811 108.8 93.3176 104.993 93.2333C101.2 93.1029 97.7108 91.972 94.5262 89.8405C91.3253 87.6793 88.6626 84.6608 86.5381 80.7852C84.5769 77.2077 83.5423 73.5875 83.4342 69.9247C83.3098 66.2321 84.1763 62.791 86.0337 59.6017C87.9209 56.3959 90.8321 53.7144 94.7674 51.5572C98.3747 49.5797 101.922 48.6239 105.409 48.6899C108.909 48.7097 112.141 49.6905 115.106 51.6325C118.1 53.5581 120.643 56.429 122.735 60.245C122.865 60.4835 123.087 60.9239 123.401 61.5663C123.698 62.1789 123.897 62.6127 123.998 62.8675L94.9751 78.7772ZM113.497 61.0051C112.797 59.7992 111.704 58.6537 110.218 57.5688C108.761 56.4675 107.001 55.8037 104.939 55.5774C102.876 55.3511 100.578 55.9325 98.0436 57.3216C95.4201 58.7598 93.5813 60.4269 92.527 62.3231C91.5026 64.2029 91.0181 66.0775 91.0736 67.9469C91.1128 69.7865 91.4322 71.3948 92.0321 72.7719L113.497 61.0051Z" fill="#F4D753"/>
<path d="M169.036 72.5179C169.002 75.0338 168.458 77.3287 167.404 79.4026C166.35 81.4765 164.786 83.1254 162.712 84.3493C160.604 85.5733 158.02 86.1852 154.96 86.1852C152.377 86.1852 150.184 85.8113 148.382 85.0633C146.546 84.2813 145.05 83.3634 143.894 82.3094C142.738 81.2215 141.905 80.2526 141.395 79.4026L137.06 84.7573C138.182 86.3892 139.559 87.8172 141.191 89.0411C142.789 90.265 144.744 91.2 147.056 91.846C149.368 92.5259 152.19 92.8659 155.521 92.8659C160.009 92.8659 163.902 91.914 167.2 90.0101C170.464 88.0722 172.98 85.4033 174.747 82.0035C176.515 78.5696 177.399 74.6428 177.399 70.2231C177.399 66.1433 176.566 62.4715 174.9 59.2076C173.235 55.9098 170.821 53.3089 167.659 51.405C164.463 49.5011 160.621 48.5492 156.133 48.5492C152.02 48.5492 148.45 49.4161 145.424 51.15C142.364 52.85 140.001 55.2638 138.335 58.3917C136.635 61.5195 135.785 65.2593 135.785 69.6111C135.785 69.8831 135.802 70.3761 135.836 71.09C135.87 71.77 135.904 72.246 135.938 72.5179H169.036ZM144.251 65.8373C144.285 64.4434 144.693 62.9134 145.475 61.2475C146.223 59.5816 147.447 58.1537 149.147 56.9637C150.847 55.7738 153.142 55.1788 156.031 55.1788C159.023 55.1788 161.437 55.7568 163.273 56.9127C165.075 58.0687 166.401 59.4796 167.251 61.1455C168.101 62.7774 168.594 64.3414 168.73 65.8373H144.251Z" fill="#E8F9B3"/>
<path d="M208.321 40.678V45.9579H183.352V40.678H208.321ZM191.152 28.1425H197.25V79.3404C197.25 81.5205 197.625 83.235 198.374 84.484C199.123 85.7103 200.1 86.5846 201.303 87.107C202.507 87.6066 203.79 87.8564 205.153 87.8564C205.948 87.8564 206.629 87.8109 207.197 87.7201C207.764 87.6066 208.264 87.493 208.695 87.3795L209.99 92.8637C209.399 93.0908 208.673 93.2952 207.81 93.4769C206.947 93.6813 205.879 93.7835 204.608 93.7835C202.382 93.7835 200.236 93.2952 198.17 92.3187C196.126 91.3422 194.445 89.8888 193.128 87.9586C191.811 86.0283 191.152 83.6325 191.152 80.7711V28.1425Z" fill="#FAFAFA"/>
<path d="M77.9411 49.6695C77.9312 49.503 77.858 49.3466 77.7364 49.2323C77.6149 49.118 77.4542 49.0545 77.2873 49.0548C62.3442 49.0548 56.2346 57.6066 54.3997 64.6201C52.5648 57.61 46.4552 49.0548 31.512 49.0548C31.3451 49.0545 31.1845 49.118 31.0629 49.2323C30.9414 49.3466 30.8682 49.503 30.8583 49.6695C30.8367 50.0296 30.4036 58.5565 36.3801 64.8939C40.3592 69.1113 46.1971 71.3075 53.746 71.4268V92.8819C53.753 93.0506 53.825 93.2101 53.947 93.327C54.0689 93.4438 54.2313 93.5091 54.4003 93.5091C54.5692 93.5091 54.7316 93.4438 54.8536 93.327C54.9755 93.2101 55.0475 93.0506 55.0545 92.8819V71.4268C62.6034 71.3075 68.4424 69.1113 72.4192 64.8939C78.3958 58.5565 77.9627 50.0296 77.9411 49.6695ZM53.746 70.1202C46.5836 70.0066 41.0641 67.9479 37.3431 64.0089C32.6432 59.0348 32.1828 52.4065 32.1566 50.375C49.2098 50.6738 53.746 62.8807 53.746 69.3715V70.1202ZM71.4529 64.0077C67.7307 67.9468 62.2146 70.0021 55.05 70.1191V69.3636C55.05 62.8727 59.5816 50.6659 76.6371 50.3671C76.6177 52.4053 76.1562 59.0336 71.4529 64.0077Z" fill="#E8F9B3"/>
<path d="M262.984 49.6695C262.974 49.503 262.901 49.3466 262.779 49.2323C262.658 49.118 262.497 49.0545 262.33 49.0548C247.387 49.0548 241.278 57.6066 239.443 64.6201C237.608 57.61 231.498 49.0548 216.555 49.0548C216.388 49.0545 216.227 49.118 216.106 49.2323C215.984 49.3466 215.911 49.503 215.901 49.6695C215.88 50.0296 215.447 58.5565 221.423 64.8939C225.402 69.1113 231.24 71.3075 238.789 71.4268V92.8819C238.796 93.0506 238.868 93.2101 238.99 93.327C239.112 93.4438 239.274 93.5091 239.443 93.5091C239.612 93.5091 239.775 93.4438 239.897 93.327C240.018 93.2101 240.09 93.0506 240.097 92.8819V71.4268C247.646 71.3075 253.485 69.1113 257.462 64.8939C263.439 58.5565 263.006 50.0296 262.984 49.6695ZM238.789 70.1202C231.627 70.0066 226.107 67.9479 222.386 64.0089C217.686 59.0348 217.226 52.4065 217.2 50.375C234.253 50.6738 238.789 62.8807 238.789 69.3715V70.1202ZM256.496 64.0077C252.774 67.9468 247.258 70.0021 240.093 70.1191V69.3636C240.093 62.8727 244.625 50.6659 261.68 50.3671C261.661 52.4053 261.199 59.0336 256.496 64.0077Z" fill="#E8F9B3"/>
</svg>
