<svg width="29" height="27" viewBox="0 0 29 27" fill="none" xmlns="http://www.w3.org/2000/svg">
<g clip-path="url(#clip0_605_2477)">
<mask id="mask0_605_2477" style="mask-type:luminance" maskUnits="userSpaceOnUse" x="0" y="0" width="29" height="27">
<path d="M28.9535 0H0.15625V27H28.9535V0Z" fill="white"/>
</mask>
<g mask="url(#mask0_605_2477)">
<path d="M13.6652 25.8559L13.8119 25.9012C14.3514 26.0671 14.861 26.2236 15.1969 26.9095C15.2054 26.9268 15.2173 26.9421 15.232 26.9544C15.2466 26.9666 15.2637 26.9757 15.2819 26.9808C15.2934 26.9839 15.3052 26.9854 15.3171 26.9854C15.3431 26.9854 15.3685 26.9777 15.3904 26.9631C15.638 26.7976 15.8713 26.6477 16.0928 26.5053C16.5568 26.2069 16.9576 25.9495 17.3409 25.6494C18.7155 24.5964 19.9699 23.388 21.0803 22.0462C22.5396 20.2528 24.0486 18.3982 25.4692 16.4569C26.3583 15.2417 27.1161 13.885 27.7567 12.7092C28.3976 11.5194 28.779 10.2013 28.875 8.84552C29.0488 6.61754 28.5324 4.60934 27.3402 2.87676C26.0135 0.948472 24.249 0.00936582 22.0995 0.0817688C19.6746 0.164918 17.542 1.11608 15.7608 2.90896C15.6744 3.00002 15.5944 3.09726 15.5215 3.19992C15.383 3.38529 15.2516 3.56127 15.0538 3.63097C12.9761 1.55426 11.3876 0.741893 9.01112 0.533684C6.57226 0.319834 4.59785 1.1247 3.14239 2.92471C2.42011 3.81443 1.78702 4.7766 1.25277 5.79664C0.113973 7.98471 -0.123326 10.3121 0.548566 12.7145C1.14778 14.8588 2.14692 16.8633 3.49058 18.6167C6.17697 22.1334 9.60029 24.5694 13.6652 25.8559ZM3.60512 6.21102C3.9172 5.60754 4.26486 5.02417 4.64613 4.4641C5.5526 3.10643 6.83014 2.42123 8.45025 2.42123C8.65095 2.42123 8.85689 2.43174 9.06809 2.45278C11.2321 2.66864 12.968 3.64697 14.2276 5.36046C14.3789 5.56625 14.5437 5.75676 14.689 5.92465C14.7482 5.99316 14.8038 6.05753 14.8529 6.11652C14.8733 6.14109 14.9016 6.15745 14.9326 6.16281C15.5168 6.26625 15.753 5.9554 15.9282 5.65692C16.9398 3.93523 18.5142 2.90752 20.8833 2.42288C21.4443 2.32351 22.0166 2.30878 22.5818 2.37918C23.4791 2.4661 24.249 2.91869 24.8701 3.72399C25.5779 4.64772 25.9975 5.76917 26.0735 6.94162C26.1989 8.29684 25.9563 9.66123 25.3729 10.8838C24.9332 11.8313 24.4329 12.7479 23.875 13.6274C22.8391 15.1936 21.7327 16.7506 20.6631 18.2563L20.2912 18.7801C19.4946 19.9026 18.6708 21.034 17.8743 22.1282C17.5868 22.5229 17.2996 22.9178 17.0126 23.3131C16.8887 23.4836 16.7598 23.6507 16.6234 23.8278C16.5784 23.8861 16.5327 23.9455 16.4862 24.0061C16.1041 23.8449 15.7321 23.6872 15.3673 23.5333C14.5063 23.1699 13.6853 22.8232 12.8663 22.4714C10.5993 21.5134 8.54587 20.0921 6.83079 18.2943C5.07233 16.4376 3.85356 14.4513 3.1051 12.2217C2.42261 10.188 2.58608 8.22178 3.60512 6.21102Z" fill="black"/>
</g>
</g>
<defs>
<clipPath id="clip0_605_2477">
<rect width="29" height="27" fill="white"/>
</clipPath>
</defs>
</svg>
