<svg width="21" height="14" viewBox="0 0 21 14" fill="none" xmlns="http://www.w3.org/2000/svg">
<path d="M20.4753 11.1078C20.4152 11.1337 20.3515 11.1576 20.2881 11.1809L17.6061 4.51526L18.1829 4.47273L18.1819 4.06224L17.3938 4.00687L17.3487 3.97066C17.3246 3.95224 17.2986 3.93854 17.2697 3.9305L17.1652 3.90876C17.1283 3.90876 17.0927 3.91619 17.0718 3.92476L17.0116 3.9273L16.9722 3.97488L11.2382 3.5605L11.2396 3.45574C11.2396 2.64511 11.1864 0 10.5005 0C9.81311 0 9.75938 2.64511 9.75938 3.45574L9.76106 3.56854L4.03439 3.98358L4.01922 3.97074C3.99477 3.95138 3.96811 3.93866 3.93957 3.93058L3.83485 3.90885C3.80434 3.90885 3.77423 3.91467 3.7456 3.92484L3.68625 3.92743L3.62584 3.99494L2.9289 4.06245L2.92816 4.47294L3.39713 4.50829L0.711993 11.181C0.648418 11.1578 0.585131 11.1338 0.524469 11.1079L0 10.8778L0.258194 11.3887C0.794189 12.4531 2.23245 13.1673 3.83489 13.1673C5.43644 13.1673 6.87466 12.453 7.41286 11.3894L7.672 10.8777L7.14655 11.107C7.08539 11.1337 7.02285 11.1576 6.95874 11.181L4.30063 4.57408L9.82152 4.97468C9.98636 6.91198 10.357 6.91198 10.5005 6.91198C10.6421 6.91198 11.0127 6.91198 11.1768 4.9835L16.697 4.58216L14.0424 11.181C13.9775 11.1577 13.9137 11.1337 13.8535 11.107L13.3287 10.8777L13.5872 11.3894C14.1253 12.453 15.5629 13.1673 17.1652 13.1673C18.7685 13.1673 20.2059 12.453 20.7423 11.3887L21 10.8778L20.4753 11.1078ZM6.35991 11.3941C4.75914 11.8945 2.91101 11.8945 1.3105 11.3941L3.83481 5.11951L6.35991 11.3941ZM14.64 11.3941L17.1651 5.11951L19.6893 11.3941C18.0894 11.8945 16.2402 11.8945 14.64 11.3941Z" fill="#E8F9B3"/>
</svg>
