<svg width="17" height="17" viewBox="0 0 17 17" fill="none" xmlns="http://www.w3.org/2000/svg">
<path d="M3.42361 7.36194C4.78361 10.0347 6.97 12.2211 9.6475 13.5811L11.7253 11.4986C11.985 11.2389 12.3581 11.1633 12.6839 11.2672C13.7417 11.6167 14.8797 11.8056 16.0556 11.8056C16.5797 11.8056 17 12.2258 17 12.75V16.0556C17 16.5797 16.5797 17 16.0556 17C7.18722 17 0 9.81278 0 0.944444C0 0.420278 0.425 0 0.944444 0H4.25C4.77417 0 5.19444 0.420278 5.19444 0.944444C5.19444 2.12028 5.38333 3.25833 5.73278 4.31611C5.83667 4.64194 5.76111 5.015 5.50139 5.27472L3.42361 7.36194Z" fill="#283618"/>
</svg>
