<svg width="12" height="12" viewBox="0 0 12 12" fill="none" xmlns="http://www.w3.org/2000/svg">
<path d="M9.00078 7.05C9.03828 6.975 9.03828 6.9 9.00078 6.84375L7.78203 4.9125H8.81328C8.88828 4.9125 8.96328 4.875 9.00078 4.8C9.03828 4.725 9.03828 4.65 9.00078 4.59375L6.18828 0.0937515C6.11328 -0.0187485 5.90703 -0.0187485 5.83203 0.0937515L3.01953 4.59375C2.98203 4.65 2.98203 4.74375 3.01953 4.8C3.05703 4.85625 3.13203 4.9125 3.20703 4.9125H4.23828L3.00078 6.84375C2.96328 6.9 2.96328 6.99375 3.00078 7.05C3.03828 7.125 3.11328 7.1625 3.18828 7.1625H4.21953L3.00078 9.09375C2.96328 9.15 2.96328 9.24375 3.00078 9.3C3.03828 9.375 3.11328 9.4125 3.18828 9.4125H5.79453V11.5875H4.98828C4.87578 11.5875 4.78203 11.6813 4.78203 11.7938C4.78203 11.9063 4.87578 12 4.98828 12H7.01328C7.12578 12 7.21953 11.9063 7.21953 11.7938C7.21953 11.6813 7.12578 11.5875 7.01328 11.5875H6.20703V9.4125H8.81328C8.88828 9.4125 8.96328 9.375 9.00078 9.3C9.03828 9.225 9.03828 9.15 9.00078 9.09375L7.78203 7.1625H8.81328C8.88828 7.1625 8.96328 7.10625 9.00078 7.05ZM7.40703 6.73125C7.33203 6.73125 7.25703 6.76875 7.21953 6.84375C7.18203 6.91875 7.18203 6.99375 7.21953 7.05L8.43828 9H6.20703V8.85L6.76953 8.175C6.84453 8.08125 6.82578 7.95 6.73203 7.875C6.63828 7.8 6.50703 7.81875 6.43203 7.9125L6.18828 8.2125V6.09375L6.82578 5.45625C6.90078 5.38125 6.90078 5.25 6.82578 5.15625C6.75078 5.0625 6.61953 5.08125 6.52578 5.15625L6.18828 5.49375V3.3L6.60078 2.8125C6.67578 2.71875 6.65703 2.5875 6.56328 2.5125C6.46953 2.4375 6.33828 2.45625 6.26328 2.55L5.81328 3.09375C5.79453 3.1125 5.77578 3.13125 5.77578 3.16875V3.1875C5.77578 3.20625 5.77578 3.20625 5.77578 3.225V4.21875L5.43828 3.88125C5.36328 3.80625 5.23203 3.80625 5.13828 3.88125C5.06328 3.95625 5.06328 4.0875 5.13828 4.18125L5.77578 4.81875V6.80625L5.53203 6.50625C5.45703 6.4125 5.32578 6.4125 5.23203 6.46875C5.13828 6.54375 5.13828 6.675 5.19453 6.76875L5.75703 7.4625V9H3.56328L4.78203 7.06875C4.81953 7.0125 4.81953 6.91875 4.78203 6.8625C4.74453 6.7875 4.66953 6.75 4.59453 6.75H3.56328L4.78203 4.81875C4.81953 4.7625 4.81953 4.66875 4.78203 4.6125C4.74453 4.5375 4.66953 4.5 4.59453 4.5H3.56328L6.00078 0.581251L8.43828 4.48125H7.40703C7.33203 4.48125 7.25703 4.51875 7.21953 4.59375C7.18203 4.66875 7.18203 4.74375 7.21953 4.8L8.43828 6.73125H7.40703Z" fill="black"/>
</svg>
