<svg width="36" height="36" viewBox="0 0 36 36" fill="none" xmlns="http://www.w3.org/2000/svg">
<path d="M25.6053 11.1329C23.1458 11.1329 21.152 13.1267 21.152 15.5862C21.152 18.0457 23.1458 20.0396 25.6053 20.0396C28.0648 20.0396 30.0586 18.0457 30.0586 15.5862C30.0586 13.1267 28.0648 11.1329 25.6053 11.1329Z" stroke="#283618" stroke-width="1.3195" stroke-miterlimit="10" stroke-linecap="round" stroke-linejoin="round"/>
<path d="M30.0586 15.5865C30.0586 20.4852 26.0506 24.4932 21.152 24.4932" stroke="#283618" stroke-width="1.3195" stroke-miterlimit="10" stroke-linecap="round" stroke-linejoin="round"/>
<path d="M10.0193 11.1329C7.55984 11.1329 5.56602 13.1267 5.56602 15.5862C5.56602 18.0457 7.55984 20.0396 10.0193 20.0396C12.4788 20.0396 14.4727 18.0457 14.4727 15.5862C14.4727 13.1267 12.4788 11.1329 10.0193 11.1329Z" stroke="#283618" stroke-width="1.3195" stroke-miterlimit="10" stroke-linecap="round" stroke-linejoin="round"/>
<path d="M14.4727 15.5865C14.4727 20.4852 10.4647 24.4932 5.56602 24.4932" stroke="#283618" stroke-width="1.3195" stroke-miterlimit="10" stroke-linecap="round" stroke-linejoin="round"/>
</svg>
