<svg width="36" height="36" viewBox="0 0 36 36" fill="none" xmlns="http://www.w3.org/2000/svg">
<path d="M10.0197 24.4933C12.4792 24.4933 14.473 22.4995 14.473 20.04C14.473 17.5805 12.4792 15.5867 10.0197 15.5867C7.56023 15.5867 5.56641 17.5805 5.56641 20.04C5.56641 22.4995 7.56023 24.4933 10.0197 24.4933Z" stroke="#283618" stroke-width="1.3195" stroke-miterlimit="10" stroke-linecap="round" stroke-linejoin="round"/>
<path d="M5.56641 20.0399C5.56641 15.1413 9.57439 11.1333 14.473 11.1333" stroke="#283618" stroke-width="1.3195" stroke-miterlimit="10" stroke-linecap="round" stroke-linejoin="round"/>
<path d="M25.6057 24.4933C28.0652 24.4933 30.059 22.4995 30.059 20.04C30.059 17.5805 28.0652 15.5867 25.6057 15.5867C23.1462 15.5867 21.1523 17.5805 21.1523 20.04C21.1523 22.4995 23.1462 24.4933 25.6057 24.4933Z" stroke="#283618" stroke-width="1.3195" stroke-miterlimit="10" stroke-linecap="round" stroke-linejoin="round"/>
<path d="M21.1523 20.0399C21.1523 15.1413 25.1603 11.1333 30.059 11.1333" stroke="#283618" stroke-width="1.3195" stroke-miterlimit="10" stroke-linecap="round" stroke-linejoin="round"/>
</svg>
