<svg width="18" height="18" viewBox="0 0 18 18" fill="none" xmlns="http://www.w3.org/2000/svg">
<path d="M16.6414 6.67959C16.6414 5.89912 16.0016 5.25928 15.2211 5.25928C14.4406 5.25928 13.8008 5.89912 13.8008 6.67959C13.8008 6.93975 13.8781 7.18584 14.0047 7.39678L12.0922 9.30928C11.8953 9.21084 11.6773 9.14756 11.4453 9.14756C11.15 9.14756 10.8828 9.23896 10.6508 9.38662L8.73125 7.47412C8.88594 7.24912 8.97734 6.9749 8.97734 6.67959C8.97734 5.89912 8.3375 5.25928 7.55703 5.25928C6.77656 5.25928 6.13672 5.89912 6.13672 6.67959C6.13672 6.91162 6.2 7.12959 6.29844 7.31943L4.26641 9.35146C4.05547 9.2249 3.80938 9.14756 3.54922 9.14756C2.76875 9.14756 2.12891 9.7874 2.12891 10.5679C2.12891 11.3483 2.76875 11.9882 3.54922 11.9882C4.32969 11.9882 4.96953 11.3483 4.96953 10.5679C4.96953 10.3077 4.89219 10.0616 4.76562 9.85068L6.7625 7.85381C6.9875 8.0085 7.26172 8.0999 7.55703 8.0999C7.78906 8.0999 8.00703 8.03662 8.19688 7.93818L10.1797 9.921C10.0813 10.1179 10.018 10.3358 10.018 10.5679C10.018 11.3483 10.6578 11.9882 11.4383 11.9882C12.2188 11.9882 12.8586 11.3483 12.8586 10.5679C12.8586 10.2726 12.7672 9.99834 12.6195 9.77334L14.4969 7.896C14.7078 8.02256 14.9539 8.0999 15.2141 8.0999C16.0016 8.0999 16.6414 7.46006 16.6414 6.67959ZM3.54922 11.278C3.15547 11.278 2.83203 10.9546 2.83203 10.5608C2.83203 10.1671 3.15547 9.84365 3.54922 9.84365C3.74609 9.84365 3.92187 9.921 4.05547 10.0546C4.18203 10.1812 4.26641 10.364 4.26641 10.5608C4.26641 10.9616 3.94297 11.278 3.54922 11.278ZM7.55703 7.38975C7.16328 7.38975 6.83984 7.06631 6.83984 6.67256C6.83984 6.27881 7.16328 5.95537 7.55703 5.95537C7.95078 5.95537 8.27422 6.27881 8.27422 6.67256C8.27422 7.07334 7.95078 7.38975 7.55703 7.38975ZM11.4453 11.278C11.0516 11.278 10.7281 10.9546 10.7281 10.5608C10.7281 10.1671 11.0516 9.84365 11.4453 9.84365C11.8391 9.84365 12.1625 10.1671 12.1625 10.5608C12.1555 10.9616 11.8391 11.278 11.4453 11.278ZM14.7148 7.17881C14.5883 7.05225 14.5039 6.86943 14.5039 6.67256C14.5039 6.27881 14.8273 5.95537 15.2211 5.95537C15.6148 5.95537 15.9383 6.27881 15.9383 6.67256C15.9383 7.06631 15.6148 7.38975 15.2211 7.38975C15.0242 7.38975 14.8414 7.3124 14.7148 7.17881Z" fill="#E8F9B3"/>
<path d="M0.672656 14.9556C0.883594 14.9556 1.05234 14.7868 1.05234 14.5759V1.554C1.05234 1.34307 0.883594 1.17432 0.672656 1.17432C0.461719 1.17432 0.292969 1.34307 0.292969 1.554V14.5759C0.292969 14.7868 0.461719 14.9556 0.672656 14.9556Z" fill="#E8F9B3"/>
<path d="M2.65547 16.0664H0.672656C0.461719 16.0664 0.292969 16.2352 0.292969 16.4461C0.292969 16.657 0.461719 16.8258 0.672656 16.8258H2.6625C2.87344 16.8258 3.04219 16.657 3.04219 16.4461C3.04219 16.2352 2.86641 16.0664 2.65547 16.0664Z" fill="#E8F9B3"/>
<path d="M6.32734 16.0664H4.34453C4.13359 16.0664 3.96484 16.2352 3.96484 16.4461C3.96484 16.657 4.13359 16.8258 4.34453 16.8258H6.33438C6.54531 16.8258 6.71406 16.657 6.71406 16.4461C6.71406 16.2352 6.53828 16.0664 6.32734 16.0664Z" fill="#E8F9B3"/>
<path d="M9.99844 16.0664H8.00859C7.79766 16.0664 7.62891 16.2352 7.62891 16.4461C7.62891 16.657 7.79766 16.8258 8.00859 16.8258H9.99844C10.2094 16.8258 10.3781 16.657 10.3781 16.4461C10.3781 16.2352 10.2094 16.0664 9.99844 16.0664Z" fill="#E8F9B3"/>
<path d="M13.6625 16.0664H11.6727C11.4617 16.0664 11.293 16.2352 11.293 16.4461C11.293 16.657 11.4617 16.8258 11.6727 16.8258H13.6625C13.8734 16.8258 14.0422 16.657 14.0422 16.4461C14.0422 16.2352 13.8734 16.0664 13.6625 16.0664Z" fill="#E8F9B3"/>
<path d="M17.3344 16.0664H15.3445C15.1336 16.0664 14.9648 16.2352 14.9648 16.4461C14.9648 16.657 15.1336 16.8258 15.3445 16.8258H17.3344C17.5453 16.8258 17.7141 16.657 17.7141 16.4461C17.7141 16.2352 17.5453 16.0664 17.3344 16.0664Z" fill="#E8F9B3"/>
</svg>
