<svg width="26" height="26" viewBox="0 0 26 26" fill="none" xmlns="http://www.w3.org/2000/svg">
<path d="M16.7882 13.144L19.3134 10.6188C19.8674 10.0648 19.9033 9.19431 19.4285 8.59719L19.4213 8.59L19.6156 8.78424L21.3062 7.09359C21.781 6.61877 21.781 5.84899 21.3062 5.37417L20.6299 4.69791C20.1551 4.22309 19.3853 4.22309 18.9105 4.69791L17.2199 6.38136L17.4141 6.57561L17.4069 6.56842C16.8098 6.0936 15.9393 6.12957 15.3853 6.68352L12.8602 9.2159L12.8674 9.22309C10.1551 8.06482 6.89613 8.59 4.6875 10.7986L7.96808 14.0792C7.10477 15.1871 7.17671 16.7914 8.19829 17.8058C9.21987 18.8274 10.8242 18.8993 11.9249 18.036L15.2055 21.3166C17.4213 19.1008 17.9393 15.849 16.781 13.1368L16.7882 13.144Z" fill="#7F7F7F"/>
<path d="M25.4242 14.5828L21.8703 11.0288L18.9062 13.9928L23.8631 18.9497L25.4242 17.3885C26.2012 16.6115 26.2012 15.3597 25.4242 14.5828Z" fill="#7F7F7F"/>
<path d="M14.9755 4.13669L11.4216 0.582734C10.6446 -0.194245 9.39282 -0.194245 8.61584 0.582734L7.05469 2.14388L12.0115 7.10072L14.9755 4.13669Z" fill="#7F7F7F"/>
<path d="M9.11741 21.4891C6.58504 21.4891 4.52029 19.4244 4.52029 16.892C4.52029 16.5323 4.22533 16.2373 3.86561 16.2373C3.5059 16.2373 3.21094 16.5323 3.21094 16.892C3.21094 20.1438 5.85842 22.7913 9.11022 22.7913C9.46993 22.7913 9.76489 22.4963 9.76489 22.1366C9.77209 21.7769 9.47712 21.4891 9.11741 21.4891Z" fill="#7F7F7F"/>
<path d="M9.11511 24.6977C4.81295 24.6977 1.30935 21.1941 1.30935 16.892C1.30935 16.5323 1.01439 16.2373 0.654677 16.2373C0.294964 16.2373 0 16.5323 0 16.892C0 21.9136 4.08633 25.9999 9.10791 25.9999C9.46762 25.9999 9.76259 25.7049 9.76259 25.3452C9.76978 24.9855 9.47482 24.6977 9.11511 24.6977Z" fill="#7F7F7F"/>
</svg>
