<svg width="26" height="26" viewBox="0 0 26 26" fill="none" xmlns="http://www.w3.org/2000/svg">
<path d="M17.0625 22.75H19.9062C20.6605 22.75 21.3838 22.4504 21.9171 21.9171C22.4504 21.3838 22.75 20.6605 22.75 19.9062V17.0625" stroke="#7F7F7F" stroke-width="1.625" stroke-linecap="round" stroke-linejoin="round"/>
<path d="M22.75 8.9375V6.09375C22.75 5.33954 22.4504 4.61622 21.9171 4.08292C21.3838 3.54961 20.6605 3.25 19.9062 3.25H17.0625" stroke="#7F7F7F" stroke-width="1.625" stroke-linecap="round" stroke-linejoin="round"/>
<path d="M8.9375 22.75H6.09375C5.33954 22.75 4.61622 22.4504 4.08292 21.9171C3.54961 21.3838 3.25 20.6605 3.25 19.9062V17.0625" stroke="#7F7F7F" stroke-width="1.625" stroke-linecap="round" stroke-linejoin="round"/>
<path d="M3.25 8.9375V6.09375C3.25 5.33954 3.54961 4.61622 4.08292 4.08292C4.61622 3.54961 5.33954 3.25 6.09375 3.25H8.9375" stroke="#7F7F7F" stroke-width="1.625" stroke-linecap="round" stroke-linejoin="round"/>
<path d="M9.5887 13.6823C9.99796 13.6823 10.2708 13.4094 10.2708 13.0002V11.5678C10.6119 11.8406 10.9529 12.1135 11.3622 12.2499C11.4304 12.3181 11.4986 12.3181 11.635 12.3181C11.9078 12.3181 12.1125 12.1817 12.2489 11.9088C12.3853 11.5678 12.2489 11.1585 11.976 11.0221C11.294 10.681 10.7483 10.2036 10.4072 9.58969C10.6801 9.79432 11.0211 9.99894 11.3622 10.2036C11.4304 10.2718 11.4986 10.2718 11.635 10.2718C11.9078 10.2718 12.1125 10.1354 12.2489 9.86253C12.3853 9.52148 12.2489 9.11222 11.976 8.9758C11.2257 8.63475 10.6119 7.95265 10.2026 7.20234C9.99796 6.72487 9.24765 6.72487 8.97481 7.20234C8.63376 7.95265 7.95167 8.56654 7.20136 8.9758C6.92852 9.18043 6.7921 9.58969 6.92852 9.86253C7.06494 10.1354 7.54241 10.34 7.81525 10.2036C8.1563 10.0672 8.49735 9.86253 8.77018 9.58969C8.42914 10.2036 7.88346 10.681 7.26957 11.0221C6.92852 11.2267 6.7921 11.636 6.92852 11.9088C7.06494 12.1817 7.4742 12.3863 7.81525 12.1817C8.22451 11.977 8.56556 11.7724 8.9066 11.4996V13.0002C8.9066 13.4094 9.17944 13.6823 9.5887 13.6823Z" fill="#7F7F7F"/>
<path d="M14.0934 11.0221C13.7524 11.1585 13.616 11.5678 13.8206 11.9088C13.957 12.2499 14.3663 12.3863 14.7073 12.1817C15.1166 11.977 15.4576 11.7724 15.7987 11.4996V13.0002C15.7987 13.4094 16.0715 13.6823 16.4808 13.6823C16.89 13.6823 17.1629 13.4094 17.1629 13.0002V11.5678C17.5039 11.8406 17.845 12.1135 18.2542 12.2499C18.2542 12.3181 18.3225 12.3181 18.4589 12.3181C18.7317 12.3181 18.9363 12.1817 19.0728 11.9088C19.2092 11.5678 19.0728 11.1585 18.7999 11.0221C18.186 10.681 17.6404 10.2036 17.2311 9.58969C17.5039 9.79432 17.845 9.99894 18.186 10.2036C18.2542 10.2718 18.3225 10.2718 18.4589 10.2718C18.7317 10.2718 18.9363 10.1354 19.0728 9.86253C19.2092 9.52148 19.0728 9.11222 18.7999 8.9758C18.0496 8.63475 17.4357 7.95265 17.0265 7.20234C16.8218 6.72487 16.0715 6.72487 15.7987 7.20234C15.4576 7.95265 14.7755 8.56654 14.0252 8.9758C13.6842 9.11222 13.5478 9.52148 13.7524 9.86253C13.8888 10.2036 14.2981 10.34 14.6391 10.1354C14.9802 9.99895 15.3212 9.79432 15.5941 9.52148C15.253 10.2036 14.7073 10.681 14.0934 11.0221Z" fill="#7F7F7F"/>
<path d="M11.6352 16.206C11.7716 16.206 11.8399 16.206 11.9763 16.3424C12.1809 16.4788 12.4537 16.6153 12.9994 16.6153C13.5451 16.6153 13.8179 16.4106 14.0226 16.3424C14.159 16.2742 14.2272 16.206 14.3636 16.206C14.5 16.206 14.5682 16.206 14.7047 16.3424C14.9093 16.4788 15.1821 16.6153 15.7278 16.6153C16.2735 16.6153 16.5463 16.4106 16.751 16.3424C16.8874 16.2742 16.9556 16.206 17.092 16.206C17.2284 16.206 17.2966 16.206 17.4331 16.3424C17.6377 16.4788 17.9105 16.6153 18.4562 16.6153C18.8655 16.6153 19.1383 16.3424 19.1383 15.9332C19.1383 15.5239 18.8655 15.2511 18.4562 15.2511C18.3198 15.2511 18.2516 15.2511 18.1152 15.1146C17.9105 14.9782 17.6377 14.8418 17.092 14.8418C16.5463 14.8418 16.2735 15.0464 16.0689 15.1146C15.9324 15.1828 15.8642 15.2511 15.7278 15.2511C15.5914 15.2511 15.5232 15.2511 15.3868 15.1146C15.1821 14.9782 14.9093 14.8418 14.3636 14.8418C13.8179 14.8418 13.5451 15.0464 13.3405 15.1146C13.2041 15.1828 13.1358 15.2511 12.9994 15.2511C12.863 15.2511 12.7948 15.2511 12.6584 15.1146C12.4537 14.9782 12.1809 14.8418 11.6352 14.8418C11.226 14.8418 10.9531 15.1146 10.9531 15.5239C10.9531 15.9332 11.226 16.206 11.6352 16.206Z" fill="#7F7F7F"/>
<path d="M6.86179 18.3203C7.06642 18.3203 7.13463 18.3203 7.27105 18.3885C7.47568 18.4567 7.74851 18.5931 8.22598 18.5931C8.70345 18.5931 8.97629 18.4567 9.18092 18.3885C9.31734 18.3203 9.38555 18.3203 9.59018 18.3203C9.79481 18.3203 9.86302 18.3203 9.99944 18.3885C10.2041 18.4567 10.4769 18.5931 10.9544 18.5931C11.4318 18.5931 11.7047 18.4567 11.9093 18.3885C12.0457 18.3203 12.1139 18.3203 12.3186 18.3203C12.7278 18.3203 13.0007 18.0474 13.0007 17.6382C13.0007 17.2289 12.7278 16.9561 12.3186 16.9561C11.8411 16.9561 11.5683 17.0925 11.3636 17.1607C11.2272 17.2289 11.159 17.2289 10.9544 17.2289C10.7497 17.2289 10.6815 17.2289 10.5451 17.1607C10.3405 17.0925 10.0677 16.9561 9.59018 16.9561C9.11271 16.9561 8.83987 17.0925 8.63524 17.1607C8.49882 17.2289 8.43061 17.2289 8.22598 17.2289C8.02135 17.2289 7.95314 17.2289 7.81672 17.1607C7.61209 17.0925 7.33926 16.9561 6.86179 16.9561C6.45253 16.9561 6.17969 17.2289 6.17969 17.6382C6.17969 18.0474 6.45253 18.3203 6.86179 18.3203Z" fill="#7F7F7F"/>
</svg>
