<svg width="34" height="34" viewBox="0 0 34 34" fill="none" xmlns="http://www.w3.org/2000/svg">
<path d="M13.9511 5.3125C15.4533 5.313 16.927 5.72338 18.2132 6.49945C19.4995 7.27551 20.5496 8.38783 21.2505 9.71656C22.1117 9.21315 23.0775 8.915 24.0726 8.84526C25.0678 8.77553 26.0656 8.93608 26.9887 9.31446C27.9118 9.69284 28.7352 10.2789 29.3951 11.027C30.055 11.7752 30.5336 12.6654 30.7937 13.6285C31.0538 14.5916 31.0885 15.6017 30.895 16.5804C30.7015 17.559 30.2851 18.4799 29.6781 19.2716C29.071 20.0632 28.2897 20.7043 27.3947 21.1451C26.4998 21.5859 25.5153 21.8145 24.5177 21.8131L13.9511 21.8397C11.7595 21.8397 9.65757 20.9691 8.10785 19.4193C6.55813 17.8696 5.6875 15.7677 5.6875 13.5761C5.6875 11.3845 6.55813 9.28257 8.10785 7.73285C9.65757 6.18313 11.7595 5.3125 13.9511 5.3125Z" fill="url(#paint0_linear_646_335)"/>
<path d="M20.3928 29.6385C18.8897 29.639 17.4149 29.2291 16.1277 28.4529C14.8404 27.6768 13.7894 26.564 13.0881 25.2345C12.2269 25.7379 11.2612 26.036 10.266 26.1058C9.27082 26.1755 8.27296 26.0149 7.3499 25.6366C6.42683 25.2582 5.60339 24.6721 4.94349 23.924C4.2836 23.1758 3.80501 22.2856 3.54489 21.3225C3.28476 20.3594 3.2501 19.3493 3.44359 18.3707C3.63707 17.392 4.05351 16.4711 4.66056 15.6794C5.26761 14.8878 6.04894 14.2467 6.94389 13.8059C7.83885 13.3651 8.82334 13.1365 9.82095 13.1379L20.3875 13.1113C22.5792 13.1113 24.681 13.982 26.2308 15.5317C27.7805 17.0814 28.6511 19.1833 28.6511 21.3749C28.6511 23.5666 27.7805 25.6684 26.2308 27.2182C24.681 28.7679 22.5792 29.6385 20.3875 29.6385H20.3928Z" fill="url(#paint1_linear_646_335)"/>
<path d="M16.0799 21.3805C17.0446 17.9274 15.0274 14.346 11.5743 13.3812C8.1212 12.4164 4.53979 14.4336 3.57501 17.8867C2.61023 21.3399 4.62743 24.9213 8.08055 25.886C11.5337 26.8508 15.1151 24.8336 16.0799 21.3805Z" fill="url(#paint2_linear_646_335)"/>
<path d="M30.7752 17.068C31.74 13.6149 29.7228 10.0335 26.2696 9.06869C22.8165 8.10392 19.2351 10.1211 18.2703 13.5742C17.3055 17.0274 19.3227 20.6088 22.7759 21.5735C26.229 22.5383 29.8104 20.5211 30.7752 17.068Z" fill="url(#paint3_linear_646_335)"/>
<path d="M14.8122 20.2675C14.3266 20.4554 13.8078 20.5421 13.2875 20.5225C11.2369 20.5225 10.1797 19.2475 10.1797 17.5581C10.1797 15.5341 11.6247 14.4078 13.415 14.4078C13.9154 14.3907 14.4136 14.4813 14.8759 14.6734L14.605 15.7359C14.248 15.5887 13.865 15.5146 13.4788 15.5181C13.2201 15.5014 12.9608 15.5412 12.7191 15.6348C12.4773 15.7284 12.2589 15.8735 12.0789 16.06C11.8989 16.2466 11.7617 16.4701 11.6768 16.7151C11.592 16.96 11.5615 17.2205 11.5875 17.4784C11.5626 17.7358 11.5944 17.9955 11.6807 18.2393C11.7671 18.483 11.9058 18.7049 12.0871 18.8892C12.2684 19.0736 12.4879 19.2159 12.7302 19.3063C12.9725 19.3967 13.2316 19.4328 13.4894 19.4122C13.8694 19.4124 14.2467 19.3478 14.605 19.2209L14.8122 20.2675Z" fill="white"/>
<path d="M20.8566 17.4088C20.8566 19.3532 19.6772 20.5325 17.9453 20.5325C16.2134 20.5325 15.1562 19.2044 15.1562 17.515C15.1562 15.7354 16.2931 14.4072 18.0409 14.4072C19.7887 14.4072 20.8566 15.7725 20.8566 17.4088ZM16.5747 17.4885C16.5747 18.6519 17.1059 19.47 18.0197 19.47C18.9334 19.47 19.4434 18.5935 19.4434 17.4513C19.4434 16.3888 18.9122 15.4697 18.0091 15.4697C17.1059 15.4697 16.5747 16.3357 16.5747 17.4885Z" fill="white"/>
<path d="M21.5312 21.5848V21.0004L22.0625 20.5223C22.9603 19.7201 23.3959 19.2579 23.4066 18.7798C23.4066 18.4451 23.2047 18.1795 22.7319 18.1795C22.4106 18.195 22.1031 18.3143 21.8553 18.5195L21.5844 17.8341C21.9761 17.5537 22.4467 17.4048 22.9284 17.4091C23.1101 17.3855 23.2946 17.4012 23.4696 17.4552C23.6446 17.5093 23.8059 17.6004 23.9425 17.7224C24.0792 17.8444 24.1879 17.9944 24.2613 18.1622C24.3348 18.33 24.3712 18.5116 24.3681 18.6948C24.3681 19.3801 23.8688 19.9326 23.2791 20.4585L22.9019 20.772H24.4372V21.5582L21.5312 21.5848Z" fill="white"/>
<defs>
<linearGradient id="paint0_linear_646_335" x1="11.8633" y1="22.5462" x2="21.8189" y2="9.6475" gradientUnits="userSpaceOnUse">
<stop stop-color="#CECECE"/>
<stop offset="1" stop-color="#ABABAB"/>
</linearGradient>
<linearGradient id="paint1_linear_646_335" x1="26.7838" y1="18.0891" x2="11.1172" y2="22.5676" gradientUnits="userSpaceOnUse">
<stop stop-color="#CECECE"/>
<stop offset="1" stop-color="#ABABAB"/>
</linearGradient>
<linearGradient id="paint2_linear_646_335" x1="7.17305" y1="21.9478" x2="14.6963" y2="15.3952" gradientUnits="userSpaceOnUse">
<stop offset="0.02" stop-color="#7F7F7F"/>
<stop offset="1" stop-color="#828282" stop-opacity="0"/>
</linearGradient>
<linearGradient id="paint3_linear_646_335" x1="27.1771" y1="13.0069" x2="19.6539" y2="19.5595" gradientUnits="userSpaceOnUse">
<stop offset="0.02" stop-color="#7F7F7F"/>
<stop offset="0.99" stop-color="#A1A1A1" stop-opacity="0"/>
</linearGradient>
</defs>
</svg>
