<svg width="24" height="24" viewBox="0 0 24 24" fill="none" xmlns="http://www.w3.org/2000/svg">
<g clip-path="url(#clip0_646_343)">
<path d="M13 2.0498V5.0798C16.39 5.5648 19 8.4748 19 11.9998C19 12.8948 18.825 13.7498 18.52 14.5348L21.12 16.0698C21.675 14.8248 22 13.4548 22 11.9998C22 6.8148 18.055 2.5548 13 2.0498ZM12 18.9998C8.135 18.9998 5 15.8648 5 11.9998C5 8.4748 7.61 5.5648 11 5.0798V2.0498C5.94 2.5498 2 6.8148 2 11.9998C2 17.5248 6.47 21.9998 11.995 21.9998C15.305 21.9998 18.23 20.3848 20.05 17.9098L17.455 16.3798C16.175 17.9748 14.21 18.9998 12 18.9998Z" fill="#7F7F7F"/>
</g>
<defs>
<clipPath id="clip0_646_343">
<rect width="24" height="24" fill="white"/>
</clipPath>
</defs>
</svg>
