<svg width="17" height="17" viewBox="0 0 17 17" fill="none" xmlns="http://www.w3.org/2000/svg">
<g clip-path="url(#clip0_1212_358)">
<path d="M7.64595 10.7456C7.50429 10.7456 7.3697 10.689 7.27054 10.5898L5.55641 8.87563C5.35099 8.67021 5.35099 8.33021 5.55641 8.1248C5.76182 7.91938 6.10182 7.91938 6.30724 8.1248L7.64595 9.46355L10.6918 6.41773C10.8972 6.21232 11.2372 6.21232 11.4426 6.41773C11.648 6.62315 11.648 6.96315 11.4426 7.16855L8.02137 10.5898C7.9222 10.689 7.78762 10.7456 7.64595 10.7456Z" fill="#E8F9B3"/>
<path d="M8.5017 16.1144C8.05545 16.1144 7.6092 15.9657 7.26211 15.6682L6.14292 14.7048C6.02958 14.6057 5.74625 14.5065 5.5975 14.5065H4.37917C3.33083 14.5065 2.48083 13.6565 2.48083 12.6082V11.3969C2.48083 11.2482 2.38167 10.9719 2.2825 10.8586L1.32625 9.73234C0.745417 9.04525 0.745417 7.9615 1.32625 7.27442L2.2825 6.14817C2.38167 6.03484 2.48083 5.75859 2.48083 5.60984V4.3915C2.48083 3.34317 3.33083 2.49317 4.37917 2.49317H5.60458C5.75333 2.49317 6.03667 2.38692 6.15 2.29484L7.26919 1.3315C7.96336 0.736504 9.04711 0.736504 9.74128 1.3315L10.8604 2.29484C10.9738 2.394 11.2571 2.49317 11.4059 2.49317H12.61C13.6584 2.49317 14.5084 3.34317 14.5084 4.3915V5.59567C14.5084 5.74442 14.6146 6.02775 14.7138 6.14109L15.6771 7.26025C16.2721 7.95442 16.2721 9.03817 15.6771 9.73234L14.7138 10.8515C14.6146 10.9648 14.5084 11.2482 14.5084 11.3969V12.6011C14.5084 13.6494 13.6584 14.4994 12.61 14.4994H11.4059C11.2571 14.4994 10.9738 14.6057 10.8604 14.6978L9.74128 15.6611C9.3942 15.9657 8.94795 16.1144 8.5017 16.1144ZM4.37917 3.55567C3.91875 3.55567 3.54333 3.93109 3.54333 4.3915V5.60275C3.54333 6.0065 3.35208 6.52359 3.09 6.82817L2.13375 7.95442C1.88583 8.24484 1.88583 8.74775 2.13375 9.03817L3.09 10.1644C3.35208 10.4761 3.54333 10.9861 3.54333 11.3898V12.6011C3.54333 13.0615 3.91875 13.4369 4.37917 13.4369H5.60458C6.01542 13.4369 6.5325 13.6282 6.84417 13.8973L7.96336 14.8607C8.25378 15.1086 8.76378 15.1086 9.0542 14.8607L10.1734 13.8973C10.485 13.6353 11.0021 13.4369 11.4129 13.4369H12.6171C13.0775 13.4369 13.4529 13.0615 13.4529 12.6011V11.3969C13.4529 10.9861 13.6442 10.469 13.9134 10.1573L14.8767 9.03817C15.1246 8.74775 15.1246 8.23775 14.8767 7.94734L13.9134 6.82817C13.6442 6.5165 13.4529 5.99942 13.4529 5.58859V4.3915C13.4529 3.93109 13.0775 3.55567 12.6171 3.55567H11.4129C11.0021 3.55567 10.485 3.36442 10.1734 3.09525L9.0542 2.13192C8.76378 1.884 8.25378 1.884 7.96336 2.13192L6.84417 3.10234C6.5325 3.36442 6.00833 3.55567 5.60458 3.55567H4.37917Z" fill="#E8F9B3"/>
</g>
<defs>
<clipPath id="clip0_1212_358">
<rect width="17" height="17" fill="white"/>
</clipPath>
</defs>
</svg>
