<svg width="46" height="46" viewBox="0 0 46 46" fill="none" xmlns="http://www.w3.org/2000/svg">
<path d="M3.50772 33.3645C3.19066 33.3647 2.88032 33.2731 2.61418 33.1007C2.34804 32.9284 2.13746 32.6827 2.00786 32.3934C0.439692 28.8911 -0.227112 25.0521 0.0682061 21.2261C0.363525 17.4002 1.61158 13.7089 3.69863 10.4888C5.78569 7.26867 8.6454 4.622 12.0172 2.78998C15.3889 0.957957 19.1655 -0.00116823 23.0029 1.06786e-06C23.4385 1.06786e-06 23.8563 0.173056 24.1643 0.481096C24.4724 0.789136 24.6454 1.20693 24.6454 1.64256V22.9959C24.6455 23.313 24.5537 23.6234 24.3812 23.8896C24.2087 24.1558 23.9628 24.3663 23.6732 24.4957L4.17809 33.2167C3.96761 33.3128 3.73912 33.3632 3.50772 33.3645Z" fill="#99A27E"/>
<path d="M28.9165 3.71463C28.7975 3.69047 28.6745 3.69305 28.5565 3.72217C28.4385 3.75129 28.3285 3.80623 28.2343 3.88303C28.1401 3.95983 28.0642 4.05656 28.0119 4.16627C27.9596 4.27597 27.9324 4.39591 27.932 4.51743V22.9962C27.9312 23.9473 27.6556 24.8778 27.1384 25.6759C26.6211 26.474 25.8843 27.1056 25.0165 27.4948L7.31072 35.4181C7.20097 35.4671 7.10331 35.5396 7.02464 35.6304C6.94596 35.7213 6.88819 35.8283 6.85539 35.9439C6.82259 36.0596 6.81557 36.181 6.83482 36.2996C6.85407 36.4182 6.89913 36.5312 6.9668 36.6305C8.32183 38.6234 10.0038 40.3731 11.9417 41.8056C15.6133 44.537 20.0708 46.0057 24.6469 45.9921C36.421 45.9921 46.0002 36.4129 46.0002 24.6388C46.0002 14.3266 38.6518 5.69802 28.9165 3.71463Z" fill="#99A27E"/>
</svg>
