<svg width="51" height="47" viewBox="0 0 51 47" fill="none" xmlns="http://www.w3.org/2000/svg">
<path d="M44.9215 30.4888C44.504 29.8993 44.4515 29.1332 44.7842 28.4899C45.1075 27.8646 45.7396 27.4756 46.4337 27.4756C46.6124 27.4756 46.6988 27.345 46.7277 27.2892C46.7527 27.2411 46.8244 27.0685 46.7016 26.8952L42.046 20.3167C41.684 19.8054 41.6384 19.1336 41.927 18.5757C42.208 18.0325 42.7573 17.6799 43.3607 17.6799H43.4715C43.7262 17.6799 43.8443 17.5096 43.8833 17.4299C43.9163 17.3622 44.0101 17.1386 43.8294 16.9065L35.1882 5.81321L31.6453 10.0115L25.8394 16.8917C25.7428 17.0062 25.7172 17.1249 25.7197 17.2236C25.7214 17.2853 25.734 17.3393 25.7472 17.3796C25.7551 17.4037 25.7632 17.4231 25.7692 17.4361C25.8076 17.5185 25.9247 17.7102 26.1853 17.7102C26.7887 17.7102 27.338 18.0477 27.619 18.5908C27.9076 19.1488 27.8619 19.813 27.4999 20.3243L22.8443 26.8989C22.7215 27.0722 22.7933 27.2428 22.8182 27.291C22.8471 27.3468 22.9334 27.4765 23.1122 27.4765C23.3725 27.4765 23.624 27.5311 23.8538 27.6323C24.2368 27.8011 24.5594 28.0994 24.7616 28.4902C24.9696 28.8923 25.027 29.3423 24.9389 29.7672C24.8861 30.0221 24.7809 30.2681 24.6243 30.489L21.6421 34.6999C21.6167 34.7359 21.5936 34.7722 21.5715 34.8085C21.5614 34.8254 21.5521 34.8426 21.5425 34.8597C21.5323 34.8779 21.5223 34.8961 21.513 34.9145C21.5015 34.9373 21.4903 34.9603 21.4799 34.9834C21.475 34.9943 21.4703 35.0052 21.4657 35.016C21.4538 35.0439 21.4423 35.0719 21.4321 35.1003C21.4312 35.1027 21.4301 35.1051 21.4292 35.1075C21.3933 35.2089 21.3673 35.3125 21.3523 35.4175C21.352 35.4197 21.3504 35.4217 21.3502 35.4239C21.3474 35.4438 21.3436 35.4636 21.3417 35.4836C21.3396 35.505 21.3326 35.5267 21.3315 35.548C21.3309 35.558 21.3216 35.568 21.3213 35.5778C21.3202 35.6104 21.3017 35.6427 21.3017 35.6747V35.6779C21.3017 35.8729 21.3667 36.0582 21.4297 36.2241L21.4496 36.2272C21.4611 36.2573 21.4735 36.2864 21.4863 36.3152C21.4924 36.3286 21.4989 36.3415 21.5053 36.3548C21.5139 36.3726 21.5222 36.3895 21.5312 36.4068C21.5418 36.4269 21.5529 36.4443 21.5641 36.4637C21.5702 36.4745 21.576 36.4815 21.5824 36.492C21.8653 36.9592 22.3442 37.2265 22.8845 37.2265H30.1333C31.3259 37.2265 32.283 38.2326 32.283 39.4492V43.9514C32.283 44.8015 32.7517 45.5474 33.43 45.9017H20.2036V38.1757C20.2036 38.0507 20.2652 37.9305 20.3419 37.8341C20.3706 37.738 20.4156 37.5089 20.4318 37.3671C20.4541 37.1716 20.4747 36.9904 20.5138 36.83C20.5058 36.8134 20.4992 36.796 20.4915 36.7792C20.4788 36.7513 20.4664 36.7234 20.4547 36.6952C20.4432 36.6674 20.4323 36.6394 20.4218 36.6113C20.4098 36.5796 20.3982 36.5479 20.3874 36.516C20.3795 36.4923 20.3722 36.4684 20.3649 36.4446C20.3535 36.4075 20.3425 36.3701 20.3327 36.3327C20.3281 36.3149 20.324 36.2969 20.3197 36.279C20.3092 36.2353 20.2994 36.1915 20.2911 36.1474C20.289 36.1362 20.2874 36.1252 20.2854 36.114C20.2765 36.0633 20.2687 36.0127 20.2627 35.9619C20.2622 35.9575 20.2618 35.9531 20.2614 35.9487C20.2075 35.4729 20.2788 34.9897 20.4736 34.5468L20.4742 34.5457C20.4984 34.4907 20.5244 34.4363 20.5524 34.3826C20.5593 34.3695 20.5673 34.3567 20.5744 34.3436C20.5966 34.3027 20.6188 34.262 20.6432 34.222C20.6642 34.1876 20.6872 34.1541 20.7098 34.1205C20.7221 34.1022 20.7333 34.0833 20.7462 34.0653L23.728 29.8543C23.91 29.5974 23.9316 29.276 23.7861 28.9947C23.6501 28.7316 23.398 28.5746 23.1121 28.5746C22.5776 28.5746 22.0913 28.2761 21.8427 27.7954C21.5878 27.3026 21.6281 26.7158 21.9479 26.2642L26.6036 19.6896C26.7292 19.5121 26.7442 19.29 26.6435 19.0953C26.5988 19.009 26.4648 18.8083 26.1851 18.8083C25.5748 18.8083 25.0338 18.4599 24.7731 17.8989C24.6729 17.6831 24.6224 17.4558 24.6199 17.2306C24.6159 16.8551 24.7453 16.4853 24.9998 16.1836L30.1291 10.1051C30.0872 10.0116 30.0716 9.90648 30.087 9.80128C30.1274 9.5251 30.1479 9.24607 30.1479 8.97197C30.1479 5.84132 27.601 3.29443 24.4704 3.29443C21.3397 3.29443 18.7928 5.84132 18.7928 8.97197C18.7928 9.11352 18.7996 9.26561 18.8135 9.43714C18.8334 9.68158 18.6886 9.90955 18.459 9.99565C18.2293 10.082 17.9703 10.0051 17.8246 9.80787C17.027 8.72852 15.7513 8.08414 14.412 8.08414C13.7183 8.08414 13.0295 8.25577 12.4203 8.58071C12.2009 8.69755 11.9307 8.65264 11.761 8.47134C10.9495 7.60393 9.84979 7.12613 8.66425 7.12613C6.32601 7.12613 4.42361 9.02853 4.42361 11.3668C4.42361 13.358 5.77804 15.0576 7.71744 15.4999C7.91247 15.5444 8.06797 15.6915 8.12309 15.8839C8.17822 16.0763 8.12441 16.2834 7.98253 16.4245C7.54076 16.8641 7.29741 17.4494 7.29741 18.0724C7.29741 18.0913 7.29818 18.1102 7.29884 18.1289L7.29961 18.1503C7.30817 18.4181 7.12237 18.653 6.85981 18.7061C4.89317 19.1043 3.46571 20.8521 3.46571 22.8621C3.46571 25.2004 5.36811 27.1027 7.70635 27.1027C7.74523 27.1027 7.78377 27.1012 7.82232 27.1L7.85372 27.0989C8.03403 27.0927 8.20798 27.177 8.31515 27.3236C8.42233 27.4702 8.45012 27.6602 8.38928 27.8314C8.30044 28.0815 8.25531 28.3434 8.25531 28.6098C8.25531 29.8916 9.2982 30.9345 10.58 30.9345C10.726 30.9345 10.874 30.9202 11.0204 30.8922C11.2329 30.8513 11.4497 30.9396 11.5736 31.1169C11.6977 31.2944 11.7056 31.5282 11.5942 31.714C11.2895 32.2219 11.1279 32.8047 11.1279 33.3995C11.1279 35.2096 12.5993 36.6823 14.4094 36.6823C14.547 36.6823 14.6836 36.673 14.8319 36.6539C15.0532 36.6259 15.2654 36.734 15.3752 36.9281C15.6749 37.458 16.1075 37.8946 16.6441 38.1906C16.8193 38.2873 16.909 38.4714 16.909 38.6714V45.9017H3.33031C3.02712 45.9017 2.78125 46.1474 2.78125 46.4507C2.78125 46.754 3.02712 46.9998 3.33031 46.9998H46.1573C46.4606 46.9998 46.7064 46.754 46.7064 46.4507C46.7064 46.1474 46.4606 45.9017 46.1573 45.9017H35.2123C35.8847 45.5563 36.3461 44.8381 36.3461 44.0069V39.4492C36.3461 38.2326 37.355 37.2265 38.5477 37.2265H46.661C47.2386 37.2265 47.7462 36.9199 48.0188 36.3925C48.3067 35.8361 48.2635 35.2043 47.9033 34.6957L44.9215 30.4888ZM14.7495 27.4417C14.6342 27.4493 14.5212 27.4531 14.4105 27.4531C13.3903 27.4531 12.5641 27.1273 11.9512 26.4823C10.5832 25.0427 10.8608 22.5426 10.8734 22.4369C10.9089 22.1357 11.1817 21.9208 11.483 21.956C11.7839 21.9916 11.9992 22.2641 11.964 22.5649C11.9604 22.5968 11.7388 24.6681 12.7495 25.7283C13.1996 26.2003 13.8301 26.403 14.6765 26.3459C14.9795 26.3281 15.2407 26.5548 15.2608 26.8572C15.2809 27.1599 15.0521 27.4216 14.7495 27.4417ZM28.849 24.6014L36.6295 19.4145C36.8819 19.2463 37.2226 19.3145 37.3909 19.5668C37.5593 19.8192 37.491 20.16 37.2386 20.3283L29.4582 25.5152C29.3645 25.5775 29.2589 25.6075 29.1541 25.6075C28.9766 25.6075 28.8026 25.5216 28.6967 25.3628C28.5285 25.1105 28.5967 24.7696 28.849 24.6014ZM41.5388 27.2581L28.5715 35.0384C28.4831 35.0915 28.3857 35.1169 28.2897 35.1169C28.1031 35.1169 27.9213 35.0218 27.8183 34.8501C27.6623 34.5901 27.7466 34.2528 28.0067 34.0969L40.9739 26.3166C41.2338 26.1603 41.5711 26.245 41.7271 26.5049C41.8832 26.7648 41.7988 27.1022 41.5388 27.2581Z" fill="#99A27E"/>
<path d="M40.0803 4.39256H44.4728C44.7761 4.39256 45.0219 4.14669 45.0219 3.8435C45.0219 3.5403 44.7761 3.29443 44.4728 3.29443H40.0803C39.777 3.29443 39.5312 3.5403 39.5312 3.8435C39.5312 4.14669 39.777 4.39256 40.0803 4.39256Z" fill="#656F47"/>
<path d="M43.3772 6.58838C43.0739 6.58838 42.8281 6.83425 42.8281 7.13744C42.8281 7.44064 43.0739 7.68651 43.3772 7.68651H45.5734C45.8767 7.68651 46.1225 7.44064 46.1225 7.13744C46.1225 6.83425 45.8767 6.58838 45.5734 6.58838H43.3772Z" fill="#656F47"/>
<path d="M48.4767 6.74871C48.3746 6.85083 48.3164 6.99249 48.3164 7.13744C48.3164 7.2824 48.3746 7.42296 48.4767 7.52618C48.5789 7.62831 48.7205 7.68651 48.8655 7.68651C49.0103 7.68651 49.151 7.62831 49.2531 7.52618C49.3562 7.42296 49.4145 7.2824 49.4145 7.13744C49.4145 6.99249 49.3563 6.85083 49.2531 6.74871C49.1509 6.64658 49.0103 6.58838 48.8655 6.58838C48.7205 6.58838 48.5789 6.64658 48.4767 6.74871Z" fill="#656F47"/>
<path d="M41.178 1.09813C41.3218 1.09813 41.4635 1.03993 41.5656 0.937801C41.6688 0.834577 41.727 0.694017 41.727 0.549064C41.727 0.404111 41.6688 0.263551 41.5656 0.160327C41.4635 0.0582007 41.3228 0 41.178 0C41.033 0 40.8923 0.0582007 40.7892 0.160327C40.6871 0.262452 40.6289 0.404111 40.6289 0.549064C40.6289 0.694017 40.6871 0.835675 40.7892 0.937801C40.8923 1.03993 41.034 1.09813 41.178 1.09813Z" fill="#656F47"/>
<path d="M44.4788 1.09813H49.9694C50.2727 1.09813 50.5185 0.852257 50.5185 0.549064C50.5185 0.245871 50.2727 0 49.9694 0H44.4788C44.1754 0 43.9297 0.245871 43.9297 0.549064C43.9297 0.852257 44.1754 1.09813 44.4788 1.09813Z" fill="#656F47"/>
<path d="M5.49064 42.2776C5.49064 41.9743 5.24477 41.7285 4.94157 41.7285H0.549064C0.245871 41.7285 0 41.9743 0 42.2776C0 42.5809 0.245871 42.8266 0.549064 42.8266H4.94157C5.24477 42.8266 5.49064 42.5809 5.49064 42.2776Z" fill="#656F47"/>
<path d="M1.64672 39.5332C1.79167 39.5332 1.93223 39.475 2.03546 39.3729C2.13758 39.2696 2.19578 39.128 2.19578 38.9841C2.19578 38.8402 2.13758 38.6985 2.03546 38.5954C1.93333 38.4933 1.79167 38.4351 1.64672 38.4351C1.50177 38.4351 1.36011 38.4933 1.25798 38.5954C1.15586 38.6985 1.09766 38.8392 1.09766 38.9841C1.09766 39.129 1.15586 39.2696 1.25798 39.3729C1.36121 39.475 1.50287 39.5332 1.64672 39.5332Z" fill="#656F47"/>
<path d="M10.4303 39.5332C10.7335 39.5332 10.9794 39.2874 10.9794 38.9841C10.9794 38.6808 10.7335 38.4351 10.4303 38.4351H4.93969C4.6365 38.4351 4.39062 38.6808 4.39062 38.9841C4.39062 39.2874 4.6365 39.5332 4.93969 39.5332H10.4303Z" fill="#656F47"/>
<path d="M49.965 9.88379H45.5725C45.2692 9.88379 45.0234 10.1297 45.0234 10.4329C45.0234 10.736 45.2692 10.9819 45.5725 10.9819H49.965C50.2683 10.9819 50.5141 10.736 50.5141 10.4329C50.5141 10.1297 50.2683 9.88379 49.965 9.88379Z" fill="#656F47"/>
</svg>
