<svg width="72" height="72" viewBox="0 0 72 72" fill="none" xmlns="http://www.w3.org/2000/svg">
<path d="M29.5423 11.25C32.7236 11.2511 35.8442 12.1201 38.568 13.7635C41.2919 15.407 43.5157 17.7625 44.9998 20.5763C46.8237 19.5102 48.8688 18.8788 50.9762 18.7311C53.0836 18.5835 55.1967 18.9235 57.1514 19.7247C59.1061 20.526 60.8499 21.767 62.2473 23.3514C63.6448 24.9358 64.6582 26.8209 65.2091 28.8604C65.7599 30.8999 65.8334 33.0389 65.4236 35.1114C65.0139 37.1838 64.132 39.134 62.8465 40.8104C61.561 42.4869 59.9064 43.8445 58.0112 44.7779C56.116 45.7113 54.0312 46.1954 51.9186 46.1925L29.5423 46.2487C24.9012 46.2487 20.4502 44.4051 17.1684 41.1233C13.8866 37.8415 12.043 33.3905 12.043 28.7494C12.043 24.1083 13.8866 19.6572 17.1684 16.3754C20.4502 13.0937 24.9012 11.25 29.5423 11.25Z" fill="url(#paint0_linear_605_2460)"/>
<path d="M43.177 62.7639C39.9939 62.7649 36.8709 61.8968 34.1449 60.2533C31.4189 58.6097 29.1933 56.2531 27.7082 53.4376C25.8844 54.5037 23.8393 55.1351 21.7319 55.2827C19.6245 55.4304 17.5114 55.0904 15.5567 54.2891C13.602 53.4879 11.8582 52.2469 10.4608 50.6625C9.06334 49.0781 8.04986 47.193 7.49901 45.1535C6.94816 43.114 6.87475 40.975 7.28449 38.9025C7.69422 36.8301 8.57608 34.8799 9.8616 33.2035C11.1471 31.527 12.8017 30.1694 14.6969 29.236C16.5921 28.3026 18.6769 27.8185 20.7895 27.8214L43.1657 27.7651C47.8069 27.7651 52.2579 29.6088 55.5397 32.8906C58.8214 36.1724 60.6651 40.6234 60.6651 45.2645C60.6651 49.9056 58.8214 54.3567 55.5397 57.6384C52.2579 60.9202 47.8069 62.7639 43.1657 62.7639H43.177Z" fill="url(#paint1_linear_605_2460)"/>
<path d="M34.0434 45.2763C36.0865 37.9638 31.8148 30.3796 24.5023 28.3366C17.1898 26.2935 9.60563 30.5652 7.56257 37.8777C5.51951 45.1902 9.79122 52.7744 17.1037 54.8174C24.4162 56.8605 32.0004 52.5888 34.0434 45.2763Z" fill="url(#paint2_linear_605_2460)"/>
<path d="M65.1645 36.1445C67.2076 28.832 62.9359 21.2478 55.6234 19.2048C48.3109 17.1617 40.7267 21.4334 38.6837 28.7459C36.6406 36.0584 40.9123 43.6426 48.2248 45.6856C55.5373 47.7287 63.1215 43.457 65.1645 36.1445Z" fill="url(#paint3_linear_605_2460)"/>
<path d="M31.3647 42.9189C30.3364 43.3168 29.2377 43.5006 28.1359 43.4589C23.7934 43.4589 21.5547 40.7589 21.5547 37.1814C21.5547 32.8952 24.6147 30.5102 28.4059 30.5102C29.4656 30.474 30.5206 30.6658 31.4997 31.0727L30.9259 33.3227C30.1698 33.0108 29.3588 32.854 28.5409 32.8614C27.9931 32.826 27.4442 32.9103 26.9322 33.1085C26.4203 33.3067 25.9577 33.614 25.5765 34.009C25.1954 34.4041 24.9048 34.8774 24.7251 35.3962C24.5454 35.9149 24.4809 36.4665 24.5359 37.0127C24.4832 37.5577 24.5506 38.1077 24.7334 38.6238C24.9162 39.14 25.2099 39.6098 25.5939 40.0002C25.9778 40.3906 26.4427 40.6921 26.9558 40.8835C27.4688 41.0748 28.0176 41.1513 28.5634 41.1077C29.3683 41.1082 30.1673 40.9713 30.9259 40.7027L31.3647 42.9189Z" fill="white"/>
<path d="M44.1689 36.866C44.1689 40.9835 41.6714 43.481 38.0039 43.481C34.3364 43.481 32.0977 40.6685 32.0977 37.091C32.0977 33.3223 34.5052 30.5098 38.2064 30.5098C41.9077 30.5098 44.1689 33.401 44.1689 36.866ZM35.1014 37.0348C35.1014 39.4985 36.2264 41.231 38.1614 41.231C40.0964 41.231 41.1764 39.3748 41.1764 36.956C41.1764 34.706 40.0514 32.7598 38.1389 32.7598C36.2264 32.7598 35.1014 34.5935 35.1014 37.0348Z" fill="white"/>
<path d="M45.5977 45.7089V44.4714L46.7227 43.4589C48.6239 41.7602 49.5464 40.7814 49.5689 39.7689C49.5689 39.0602 49.1414 38.4977 48.1402 38.4977C47.4598 38.5307 46.8085 38.7833 46.2839 39.2177L45.7102 37.7664C46.5396 37.1725 47.5363 36.8573 48.5564 36.8664C48.941 36.8163 49.3319 36.8496 49.7025 36.964C50.0731 37.0785 50.4146 37.2715 50.7039 37.5299C50.9932 37.7882 51.2235 38.1058 51.379 38.4611C51.5345 38.8165 51.6116 39.2011 51.6052 39.5889C51.6052 41.0402 50.5477 42.2102 49.2989 43.3239L48.5002 43.9877H51.7514V45.6527L45.5977 45.7089Z" fill="white"/>
<defs>
<linearGradient id="paint0_linear_605_2460" x1="25.1211" y1="47.745" x2="46.2036" y2="20.43" gradientUnits="userSpaceOnUse">
<stop stop-color="#CECECE"/>
<stop offset="1" stop-color="#ABABAB"/>
</linearGradient>
<linearGradient id="paint1_linear_605_2460" x1="56.7107" y1="38.3064" x2="23.5345" y2="47.7901" gradientUnits="userSpaceOnUse">
<stop stop-color="#CECECE"/>
<stop offset="1" stop-color="#ABABAB"/>
</linearGradient>
<linearGradient id="paint2_linear_605_2460" x1="15.182" y1="46.4777" x2="31.1135" y2="32.6016" gradientUnits="userSpaceOnUse">
<stop offset="0.02" stop-color="#99A27E"/>
<stop offset="1" stop-color="#828282" stop-opacity="0"/>
</linearGradient>
<linearGradient id="paint3_linear_605_2460" x1="57.5451" y1="27.5445" x2="41.6136" y2="41.4206" gradientUnits="userSpaceOnUse">
<stop offset="0.02" stop-color="#99A27E"/>
<stop offset="0.99" stop-color="#A1A1A1" stop-opacity="0"/>
</linearGradient>
</defs>
</svg>
