<svg width="51" height="46" viewBox="0 0 51 46" fill="none" xmlns="http://www.w3.org/2000/svg">
<path fill-rule="evenodd" clip-rule="evenodd" d="M24.6403 32.1954L28.6309 29.8899L26.5218 26.2404L22.5313 28.5458L24.6403 32.1954ZM29.4546 30.4344L24.6988 33.1775C24.4885 33.2981 24.2198 33.2292 24.0992 33.0188L21.5491 28.6044C21.4285 28.3942 21.5007 28.1254 21.711 28.0048L26.4666 25.2582C26.6768 25.1376 26.9456 25.2099 27.0662 25.4202L29.6129 29.8313C29.7371 30.0414 29.6646 30.3103 29.4546 30.4344ZM7.42642 35.7174L3.34972 38.0745L6.51673 43.5643L10.597 41.2071L7.42642 35.7174ZM5.75517 44.0055L2.58805 38.5123L0 40.0078L3.17056 45.4977L5.75517 44.0055ZM8.1881 35.2797L11.3584 40.7694L14.6806 38.8499L17.6994 33.4499L11.5273 33.35L8.1881 35.2797ZM40.2754 16.753L43.4461 22.2463L47.5264 19.8891L44.3526 14.3992L40.2754 16.753ZM42.6843 22.6839L39.514 17.1942L36.302 19.0481L33.3004 24.438L39.4898 24.5276L42.6843 22.6839ZM45.1173 13.9581L48.2879 19.4514L51 17.8833L47.8296 12.3902L45.1173 13.9581ZM14.915 9.95035L14.1017 10.4224L14.6704 13.7377L17.5032 12.1041L14.915 9.95035ZM31.2051 5.20842L1.84721 22.1566L4.63161 26.9814C4.99016 27.5878 5.44828 28.1048 5.97225 28.5182L28.2241 15.6709C28.424 15.5573 28.6826 15.6261 28.7996 15.8259C28.9134 16.0293 28.8443 16.2877 28.6446 16.405L6.75799 29.0386C7.14725 29.2488 7.55736 29.4107 7.98133 29.5245C9.3426 29.8899 10.8416 29.7417 12.1478 28.9973L16.583 26.4403L27.542 20.1096L27.5523 20.1062L27.5626 20.0992L31.9463 17.5698C33.2625 16.8082 34.1516 15.5745 34.5206 14.2062C34.8857 12.8381 34.7341 11.3356 33.9827 10.0191L31.2051 5.20842ZM34.4617 36.4376L34.4825 36.3687L34.4996 36.3032V36.2998L34.5135 36.2344V36.2309L34.5307 36.162L34.5445 36.0931L34.5582 36.0242L34.572 35.9553L34.5823 35.8863L34.5961 35.8174V35.8139L34.6065 35.7485V35.7451L34.6135 35.6762L34.6239 35.6072V35.6039L34.6307 35.5349L34.6377 35.466L34.6412 35.4626L34.6444 35.3971V35.3937L34.6514 35.3247V35.3214L34.6547 35.2558V35.2524L34.6583 35.1835V35.1801L34.6617 35.1146V35.1113L34.6651 35.0422V35.0389V34.9699V34.9665V34.901V34.8976V34.8288V34.8252V34.7597V34.7527L34.6617 34.6873V34.6838L34.6583 34.615V34.6116L34.6547 34.5461V34.5392L34.6514 34.4736V34.4702L34.6444 34.4012V34.3978L34.6375 34.3324V34.3254L34.6306 34.2599V34.2566L34.6238 34.191V34.1842L34.6134 34.1186V34.1116L34.6064 34.0496L34.6031 34.0426L34.5928 33.9772V33.9702L34.5822 33.9047V33.8977L34.5686 33.8357V33.8287L34.5548 33.7632V33.7562L34.541 33.6942V33.6872L34.5271 33.6217L34.5237 33.6147L34.5098 33.5527V33.5458L34.4927 33.4837V33.4767L34.4754 33.4113L34.4722 33.4043L34.4584 33.3423L34.4549 33.3353L34.4379 33.2731L34.4344 33.2628L34.4171 33.2043L34.4138 33.1939L34.3965 33.1319L34.393 33.1249L34.3723 33.0628L34.3689 33.0558L34.3483 32.9937V32.9869L34.324 32.9248V32.9178L34.2999 32.8557L34.2965 32.8488L34.2758 32.7866L34.2722 32.7798L34.2482 32.7177L34.2448 32.7107L34.1896 32.5833L34.1861 32.5729L34.1311 32.4489L34.1242 32.4385L34.1 32.3799L34.0653 32.3144L34.0621 32.304L34.031 32.2456C33.9863 32.1594 33.9415 32.0697 33.8898 31.9836L23.6925 37.8697L23.7237 37.9249L23.7305 37.9352L23.7649 37.987L23.7719 38.0008L23.8029 38.0525L23.8098 38.0628L23.8443 38.1145L23.8512 38.1249L23.8857 38.1766L23.8927 38.1869L23.9271 38.2387L23.934 38.2491L23.9685 38.3007L23.9755 38.3111L24.0134 38.3629L24.0203 38.3732L24.0582 38.4214L24.0651 38.4318L24.103 38.4802L24.11 38.4906L24.1479 38.5388L24.1548 38.5491L24.1927 38.5975L24.1995 38.6044L24.2375 38.6561L24.2444 38.663L24.2857 38.7113L24.2927 38.7183L24.3339 38.7666L24.3409 38.7736L24.3822 38.8219L24.3891 38.8288L24.4304 38.8771L24.4374 38.8841L24.4786 38.9289L24.4856 38.9357L24.5304 38.9841L24.5371 38.9911L24.5822 39.0357L24.5889 39.0427L24.6337 39.0875L24.6373 39.0945L24.6855 39.1392L24.6924 39.1426L24.7373 39.1874L24.7441 39.1943L24.7888 39.2392L24.7958 39.2425L24.844 39.2873L24.8474 39.2907L24.8956 39.3355L24.9026 39.3388L24.9509 39.3802L24.9578 39.3872L25.006 39.4285L25.013 39.432L25.0612 39.4733L25.0681 39.4767L25.1199 39.518L25.1234 39.5216L25.175 39.5628L25.2335 39.6042L25.2371 39.6076L25.2887 39.649L25.2956 39.6524L25.3474 39.6903L25.3509 39.6937L25.406 39.7317L25.4096 39.7351L25.4647 39.773L25.4681 39.7763L25.5232 39.8109L25.5302 39.8144L25.5853 39.8523H25.5888L25.6437 39.8902H25.6473L25.7058 39.9248L25.7093 39.9281L25.7644 39.9626L25.7714 39.966L25.8265 40.0005H25.8299L25.8884 40.0351H25.8919L25.9504 40.0697H25.9538L26.0124 40.1042H26.0157L26.0778 40.1351L26.0812 40.1386L26.1398 40.1695H26.1433L26.2018 40.2005H26.2053L26.2672 40.228L26.2707 40.2315L26.3328 40.2591L26.3949 40.29H26.3983L26.4603 40.3175H26.4637L26.5258 40.3452H26.5294L26.5915 40.3727H26.5947L26.6569 40.3969H26.6603L26.7257 40.4211L26.7913 40.4451L26.8569 40.4693H26.8601L26.9257 40.4935L26.9912 40.5142H26.9946L27.0601 40.5349L27.1291 40.5557L27.1944 40.5764L27.2634 40.5937C28.7177 40.9831 30.3133 40.8245 31.7125 40.0249L31.7297 40.0146C33.128 39.2049 34.0723 37.8953 34.4617 36.4376ZM6.56496 5.19113C6.45819 5.40821 6.1961 5.4978 5.97569 5.39103C5.7586 5.28426 5.6688 5.01884 5.77568 4.80186C6.14787 4.05049 6.63381 3.3509 7.21965 2.72715C7.78487 2.12412 8.44643 1.59328 9.1978 1.15911L9.22197 1.14536C9.96979 0.718066 10.7554 0.411399 11.5481 0.228574C12.3787 0.0322224 13.2263 -0.0368498 14.0603 0.0183636C14.3049 0.0322224 14.4876 0.242433 14.4738 0.483687C14.4601 0.72494 14.2498 0.910981 14.0051 0.897122C13.2574 0.848893 12.4959 0.91087 11.748 1.08671C11.0313 1.25545 10.3247 1.52786 9.6598 1.91036L9.63895 1.92068C8.96353 2.31016 8.36738 2.78923 7.8607 3.33017C7.33341 3.88851 6.89924 4.51914 6.56496 5.19113ZM10.6521 7.00031C10.5315 7.21407 10.2594 7.28636 10.0491 7.16573C9.83885 7.0451 9.76656 6.7728 9.88719 6.56271C10.0664 6.24916 10.2903 5.95613 10.5522 5.69082C10.8072 5.43582 11.1002 5.21186 11.4276 5.02227C11.7549 4.82936 12.0996 4.69144 12.4441 4.59853C12.8024 4.50196 13.1678 4.45717 13.5332 4.45717C13.7744 4.45717 13.9742 4.65363 13.9742 4.89832C13.9742 5.13957 13.7744 5.33593 13.5332 5.33593C13.2469 5.33593 12.9575 5.37395 12.6715 5.44968C12.3959 5.52197 12.1237 5.63228 11.8686 5.7804C11.61 5.92875 11.3793 6.1078 11.1793 6.31114C10.9725 6.51791 10.7933 6.75218 10.6521 7.00031ZM13.0437 7.34157C12.961 7.32072 12.8681 7.33115 12.7887 7.37605C12.7095 7.42084 12.6577 7.48969 12.6336 7.56896L12.6302 7.58282C12.6094 7.66542 12.6199 7.75855 12.6647 7.83782C12.7095 7.91699 12.7853 7.9722 12.868 7.99282C12.9542 8.01699 13.0472 8.00657 13.1264 7.96178C13.2023 7.91699 13.254 7.84814 13.2782 7.76886L13.2817 7.755C13.3059 7.67241 13.2953 7.57927 13.2506 7.50011C13.2023 7.42084 13.1264 7.36563 13.0437 7.34157ZM12.3649 6.64541C12.6474 6.48343 12.9714 6.44906 13.2609 6.52479C13.5539 6.60406 13.8192 6.79354 13.9811 7.07615C14.1431 7.35875 14.1775 7.68272 14.0984 7.9722L14.0914 7.99626C14.0122 8.27887 13.8228 8.53398 13.5468 8.69241C13.2643 8.85439 12.9404 8.88876 12.6509 8.8096C12.3614 8.73377 12.0961 8.54085 11.9342 8.25824C11.7721 7.97564 11.7377 7.65522 11.8136 7.36219L11.8204 7.34157C11.903 7.05896 12.0893 6.80396 12.3649 6.64541ZM8.54998 6.0629C8.43967 6.2801 8.17436 6.36281 7.95716 6.2526C7.74351 6.14217 7.65737 5.87686 7.76768 5.65967C8.04686 5.11862 8.40851 4.61549 8.83592 4.16746C9.24946 3.73673 9.7353 3.35079 10.2833 3.03714C10.8277 2.72016 11.3999 2.49277 11.9856 2.3513C12.5888 2.20317 13.2056 2.14474 13.8088 2.17224C14.0534 2.18255 14.2395 2.386 14.2292 2.63058C14.2189 2.87194 14.0156 3.06142 13.7709 3.051C13.2469 3.02694 12.7129 3.0785 12.1925 3.20267C11.6894 3.32662 11.1931 3.5232 10.7209 3.79538C10.2523 4.06768 9.83187 4.39852 9.46999 4.77747C9.10134 5.16363 8.79124 5.5978 8.54998 6.0629ZM23.2548 37.1096L33.452 31.22L27.6038 21.0917L17.4032 26.9812L23.2548 37.1096Z" fill="#99A27E"/>
</svg>
