<svg width="44" height="49" viewBox="0 0 44 49" fill="none" xmlns="http://www.w3.org/2000/svg">
<g clip-path="url(#clip0_578_1402)">
<path d="M43.3201 10.7103C39.1248 4.40828 31.9726 0.266235 23.8852 0.266235C10.9961 0.266235 0.507812 10.8119 0.507812 23.7717C0.507812 36.7315 10.9961 47.2772 23.8852 47.2772C31.9726 47.2772 39.0995 43.1352 43.2948 36.8332L41.551 35.6642C37.7348 41.3818 31.2397 45.1681 23.8852 45.1681C12.1586 45.1681 2.60546 35.588 2.60546 23.7717C2.60546 11.9555 12.1586 2.37538 23.8852 2.37538C31.2397 2.37538 37.7348 6.16167 41.551 11.8792L43.3201 10.7103Z" fill="#283618"/>
<path d="M23.8832 30.4294C20.2186 30.4294 17.2617 27.4309 17.2617 23.7717C17.2617 20.087 20.2439 17.1139 23.8832 17.1139C26.1831 17.1139 28.2049 18.2828 29.3928 20.087L27.6489 21.256C26.8402 20.0362 25.4501 19.2231 23.8832 19.2231C21.3812 19.2231 19.3594 21.256 19.3594 23.7717C19.3594 26.2874 21.3812 28.3203 23.8832 28.3203C25.4501 28.3203 26.8402 27.5071 27.6489 26.2874L29.3928 27.4563C28.2049 29.2605 26.1831 30.4294 23.8832 30.4294Z" fill="#283618"/>
<path d="M34.0444 30.582L32.3006 29.413C30.4809 32.1321 27.3976 33.9363 23.9099 33.9363C18.3246 33.9363 13.8008 29.3876 13.8008 23.7717C13.8008 18.1558 18.3246 13.6072 23.9099 13.6072C27.3976 13.6072 30.5062 15.4114 32.3006 18.1304L34.0444 16.9615C31.8457 13.6834 28.1306 11.498 23.9099 11.498C17.1873 11.498 11.7031 17.0123 11.7031 23.7717C11.7031 30.5311 17.1873 36.0454 23.9099 36.0454C28.1053 36.0454 31.8457 33.86 34.0444 30.582Z" fill="#283618"/>
<path d="M23.8859 41.6612C14.08 41.6612 6.09375 33.6312 6.09375 23.7717C6.09375 13.9121 14.08 5.88208 23.8859 5.88208C30.0526 5.88208 35.4862 9.03309 38.6706 13.8358L36.9268 15.0048C34.1215 10.7865 29.3196 7.99122 23.8859 7.99122C15.2425 7.99122 8.1914 15.0556 8.1914 23.7717C8.1914 32.4877 15.2173 39.5521 23.8859 39.5521C29.3196 39.5521 34.0962 36.7568 36.9268 32.5385L38.6706 33.7075C35.4862 38.4848 30.0526 41.6612 23.8859 41.6612Z" fill="#283618"/>
</g>
<defs>
<clipPath id="clip0_578_1402">
<rect width="42.9639" height="47.8278" fill="white" transform="translate(0.507812 0.266113)"/>
</clipPath>
</defs>
</svg>
