<svg width="46" height="47" viewBox="0 0 46 47" fill="none" xmlns="http://www.w3.org/2000/svg">
<path d="M25.2827 30.8689C25.2827 30.0989 25.0635 29.3499 24.6488 28.7027C23.9037 27.5394 22.6363 26.845 21.2585 26.845C19.8808 26.845 18.6133 27.5394 17.8681 28.7027C17.4535 29.3499 17.2344 30.099 17.2344 30.8689C17.2344 32.9099 18.762 34.5996 20.7336 34.8578V32.6885V39.9669C20.7336 40.2567 20.9685 40.4917 21.2585 40.4917C21.5483 40.4917 21.7834 40.2567 21.7834 39.9669V34.8578C23.7549 34.5996 25.2827 32.9099 25.2827 30.8689Z" fill="#283618"/>
<path d="M12.5177 27.255L23.4037 15.4L13.4342 16.1303L0.890625 27.8947H11.9302L12.5177 27.255Z" fill="#283618"/>
<path d="M7.9622 32.0939C5.35739 32.0939 3.23828 34.213 3.23828 36.8178C3.23828 39.2452 5.07871 41.2499 7.43729 41.5119V38.9173L7.43741 46.2656C7.43741 46.5556 7.67238 46.7905 7.96231 46.7905C8.25225 46.7905 8.48722 46.5556 8.48722 46.2656V41.5119C10.8457 41.2499 12.6862 39.2452 12.6862 36.8178C12.6861 34.213 10.567 32.0939 7.9622 32.0939Z" fill="#283618"/>
<path d="M4.81191 5.84977C6.259 5.84977 7.43632 4.67246 7.43632 3.22536C7.43632 1.77827 6.259 0.600952 4.81191 0.600952C3.36482 0.600952 2.1875 1.77827 2.1875 3.22536C2.1875 4.67246 3.36482 5.84977 4.81191 5.84977Z" fill="#283618"/>
<path d="M28.2585 33.1436C26.8808 33.1436 25.6133 33.838 24.8682 35.0013C24.4536 35.6486 24.2344 36.3976 24.2344 37.1676C24.2344 39.2086 25.7621 40.8982 27.7336 41.1564V46.2655C27.7336 46.5554 27.9685 46.7904 28.2583 46.7904C28.5483 46.7904 28.7833 46.5554 28.7833 46.2655V41.1564C30.7549 40.8982 32.2824 39.2086 32.2824 37.1676C32.2824 36.3977 32.0633 35.6487 31.6486 35.0012C30.9038 33.838 29.6363 33.1436 28.2585 33.1436Z" fill="#283618"/>
<path d="M17.3509 27.6345C17.3798 27.5995 17.4101 27.5663 17.4397 27.5323C17.4782 27.488 17.5165 27.4436 17.5564 27.4009C17.588 27.3669 17.6208 27.3346 17.6534 27.3017C17.6934 27.2612 17.7332 27.2205 17.7745 27.1815C17.8085 27.1492 17.8435 27.1182 17.8783 27.087C17.9199 27.0497 17.9616 27.0125 18.0043 26.9767C18.0404 26.9464 18.0774 26.9172 18.1143 26.888C18.1576 26.8536 18.201 26.8198 18.2454 26.7869C18.2834 26.7588 18.322 26.7316 18.3608 26.7046C18.4057 26.6733 18.451 26.6423 18.4968 26.6125C18.5366 26.5868 18.5766 26.5616 18.6169 26.537C18.6637 26.5084 18.7107 26.4808 18.7583 26.4538C18.7994 26.4305 18.8406 26.4077 18.8824 26.3856C18.9308 26.3599 18.9798 26.3352 19.0291 26.3111C19.0713 26.2904 19.1137 26.2701 19.1565 26.2506C19.2067 26.2278 19.2574 26.2061 19.3084 26.185C19.3517 26.1671 19.3948 26.1491 19.4385 26.1323C19.4907 26.1122 19.5433 26.094 19.5961 26.0757C19.6399 26.0605 19.6835 26.0452 19.7277 26.0311C19.7819 26.0141 19.8369 25.9988 19.8919 25.9835C19.9357 25.9713 19.9792 25.9584 20.0233 25.9475C20.0803 25.9332 20.138 25.9213 20.1957 25.9089C20.2387 25.8998 20.2816 25.8897 20.325 25.8816C20.3859 25.8704 20.4474 25.8617 20.5089 25.8526C20.5499 25.8465 20.5906 25.8393 20.6319 25.8342C20.7005 25.8258 20.7698 25.8202 20.839 25.8146C20.8738 25.8118 20.9084 25.8075 20.9433 25.8053C21.0478 25.7988 21.1528 25.7953 21.2584 25.7953C21.3641 25.7953 21.4691 25.7988 21.5736 25.8053C21.6085 25.8075 21.643 25.8118 21.6777 25.8145C21.747 25.8202 21.8163 25.8258 21.8851 25.8342C21.9262 25.8393 21.9667 25.8465 22.0076 25.8526C22.0692 25.8616 22.131 25.8704 22.192 25.8816C22.2353 25.8897 22.2781 25.8996 22.3211 25.9089C22.3789 25.9212 22.4367 25.9332 22.4938 25.9475C22.5378 25.9586 22.5812 25.9712 22.6249 25.9833C22.6801 25.9987 22.7352 26.014 22.7896 26.0311C22.8336 26.0451 22.8769 26.0604 22.9206 26.0755C22.9736 26.0938 23.0266 26.1122 23.0789 26.1324C23.1224 26.149 23.1653 26.1669 23.2082 26.1847C23.2595 26.206 23.3105 26.2278 23.361 26.2506C23.4036 26.2701 23.4458 26.2904 23.4878 26.3109C23.5373 26.3351 23.5864 26.36 23.6352 26.3858C23.6766 26.4078 23.7177 26.4304 23.7586 26.4537C23.8065 26.4808 23.8538 26.5086 23.9008 26.5373C23.9409 26.5619 23.9807 26.5866 24.0202 26.6123C24.0663 26.6425 24.1118 26.6734 24.157 26.7049C24.1957 26.7318 24.2341 26.7589 24.2719 26.787C24.3165 26.8199 24.3601 26.854 24.4036 26.8884C24.4403 26.9176 24.4769 26.9466 24.5131 26.9768C24.556 27.0128 24.5978 27.05 24.6396 27.0876C24.6742 27.1185 24.7091 27.1494 24.743 27.1816C24.7843 27.2209 24.8245 27.2616 24.8646 27.3024C24.8968 27.3351 24.9295 27.3672 24.9609 27.4009C25.0009 27.4439 25.0396 27.4887 25.0784 27.5333C25.1078 27.5671 25.1378 27.6001 25.1663 27.6345C25.206 27.6826 25.2438 27.7325 25.2817 27.7823C25.3074 27.8155 25.3338 27.8479 25.3584 27.882C25.3617 27.8864 25.3653 27.8905 25.3685 27.8948H45.7949L39.1124 18.3486L26.4946 13.1173L25.1156 15.0815C25.1024 15.1002 25.0881 15.118 25.0726 15.1349L13.3555 27.8948H17.1492C17.1524 27.8906 17.1557 27.8866 17.1589 27.8823C17.1841 27.8477 17.2109 27.8145 17.2369 27.7809C17.2743 27.7313 17.3116 27.682 17.3509 27.6345Z" fill="#283618"/>
<path d="M37.3535 1.58982C37.4323 1.58982 37.5125 1.57202 37.5879 1.53429C38.0448 1.30585 39.4929 0.797395 40.1313 1.43595C40.3361 1.64085 40.6687 1.64085 40.8735 1.43595C41.6297 0.679911 43.4001 1.52595 43.4178 1.53463C43.493 1.57202 43.5727 1.58971 43.6512 1.58971C43.8438 1.58971 44.0291 1.48338 44.1211 1.29943C44.2508 1.04014 44.1457 0.724854 43.8864 0.595318C43.7957 0.550036 41.8354 -0.4109 40.5023 0.402252C39.1695 -0.411012 37.2091 0.549924 37.1184 0.595318C36.8591 0.724967 36.754 1.04025 36.8837 1.29943C36.9757 1.48349 37.161 1.58982 37.3535 1.58982Z" fill="#283618"/>
<path d="M35.2559 5.32217C35.3347 5.32217 35.4148 5.30438 35.4901 5.26664C35.947 5.03821 37.395 4.52975 38.0336 5.16831C38.2383 5.3732 38.571 5.3732 38.7759 5.16831C39.5319 4.41215 41.3025 5.25831 41.3201 5.26698C41.3952 5.30449 41.475 5.32206 41.5536 5.32206C41.7461 5.32206 41.9314 5.21573 42.0234 5.03179C42.1531 4.77249 42.0481 4.45721 41.7888 4.32756C41.698 4.28216 39.7376 3.32134 38.4047 4.1346C37.0718 3.32123 35.1114 4.28228 35.0207 4.32756C34.7614 4.45721 34.6564 4.77249 34.786 5.03179C34.8779 5.21595 35.0633 5.32217 35.2559 5.32217Z" fill="#283618"/>
</svg>
