<svg width="48" height="48" viewBox="0 0 48 48" fill="none" xmlns="http://www.w3.org/2000/svg">
<path d="M23.5867 0.0766602C23.5754 0.0766602 23.5754 0.0766602 23.5641 0.0766602C23.5641 0.0766602 23.5641 0.0766602 23.5528 0.0766602C23.5415 0.0766602 23.5302 0.0766602 23.5302 0.0766602C10.5666 0.110567 0.078125 10.6216 0.078125 23.5852C0.078125 36.5489 10.5666 47.0599 23.5302 47.0938C23.5415 47.0938 23.5528 47.0938 23.5528 47.0938H23.5641C23.5754 47.0938 23.5754 47.0938 23.5867 47.0938C36.5729 47.0938 47.0953 36.5715 47.0953 23.5852C47.0953 10.599 36.5729 0.0766602 23.5867 0.0766602ZM23.5867 45.2176C23.5754 45.2176 23.5754 45.2176 23.5641 45.2176C23.5641 45.2176 23.5641 45.2176 23.5528 45.2176C23.5415 45.2176 23.5302 45.2176 23.5302 45.2176C11.6177 45.1837 1.95429 35.5091 1.95429 23.5852C1.95429 11.6614 11.6064 1.98673 23.5302 1.96413C23.5415 1.96413 23.5415 1.96413 23.5528 1.96413H23.5641C23.5754 1.96413 23.5754 1.96413 23.5867 1.96413C35.5331 1.96413 45.2191 11.6501 45.2191 23.5965C45.2191 35.5317 35.5331 45.2176 23.5867 45.2176Z" fill="#283618"/>
<path d="M31.0791 14.0687C28.9656 14.5773 26.7843 14.8825 24.5352 14.9503V22.6471H32.1754C32.1076 19.4712 31.7121 16.5891 31.0791 14.0687Z" fill="#283618"/>
<path d="M24.5234 3.97583V13.2323C26.6143 13.1645 28.6487 12.8933 30.604 12.4186C29.1234 7.73946 26.8178 4.66526 24.5234 3.97583Z" fill="#283618"/>
<path d="M16.5117 12.4073C18.4896 12.882 20.5353 13.1645 22.6375 13.2324V3.95325C20.3432 4.62008 18.0036 7.69428 16.5117 12.4073Z" fill="#283618"/>
<path d="M37.67 9.72865C35.1157 7.12915 31.8494 5.23038 28.1875 4.36011C29.8602 6.08934 31.2617 8.73406 32.2676 11.9665C34.1551 11.3901 35.9634 10.6441 37.67 9.72865Z" fill="#283618"/>
<path d="M33.9063 22.6472H43.321C43.1176 18.262 41.4788 14.2384 38.8567 11.0511C36.924 12.1136 34.8783 12.9838 32.7422 13.628C33.4316 16.3406 33.8385 19.4035 33.9063 22.6472Z" fill="#283618"/>
<path d="M14.9375 22.647H22.6456V14.9502C20.3739 14.8824 18.1699 14.5773 16.0451 14.0574C15.4009 16.5778 15.0053 19.4711 14.9375 22.647Z" fill="#283618"/>
<path d="M32.175 24.5234H24.5234V32.2089C26.7726 32.2767 28.9652 32.5706 31.0787 33.0905C31.7116 30.5814 32.1072 27.6881 32.175 24.5234Z" fill="#283618"/>
<path d="M16.0451 33.1018C18.1699 32.5819 20.3739 32.2767 22.6456 32.2089V24.5234H14.9375C15.0053 27.6994 15.4009 30.5927 16.0451 33.1018Z" fill="#283618"/>
<path d="M22.6488 43.2059V33.9268C20.5466 33.9946 18.4896 34.2771 16.5117 34.7518C18.0036 39.4648 20.3432 42.5503 22.6488 43.2059Z" fill="#283618"/>
<path d="M28.1875 42.8103C31.8494 41.9287 35.1157 40.0413 37.6813 37.4305C35.9747 36.515 34.1664 35.769 32.2789 35.1926C31.273 38.4364 29.8602 41.0698 28.1875 42.8103Z" fill="#283618"/>
<path d="M18.9186 4.38293C15.2906 5.26451 12.0469 7.15197 9.50391 9.74018C11.1992 10.6444 12.985 11.3903 14.8498 11.9554C15.8557 8.73428 17.2572 6.11217 18.9186 4.38293Z" fill="#283618"/>
<path d="M32.7422 33.5426C34.8896 34.1868 36.9353 35.0571 38.868 36.1195C41.4901 32.9323 43.1289 28.9087 43.3323 24.5234H33.9176C33.8385 27.7672 33.4316 30.8188 32.7422 33.5426Z" fill="#283618"/>
<path d="M24.5234 33.9268V43.1946C26.8178 42.5051 29.1234 39.4309 30.604 34.7405C28.6487 34.2658 26.6143 33.9946 24.5234 33.9268Z" fill="#283618"/>
<path d="M14.3852 13.6167C12.2604 12.9725 10.226 12.1136 8.31593 11.0511C5.69382 14.2384 4.055 18.262 3.85156 22.6472H13.2211C13.2776 19.3922 13.6958 16.3293 14.3852 13.6167Z" fill="#283618"/>
<path d="M13.2133 24.5234H3.84375C4.04719 28.9087 5.68601 32.9323 8.30812 36.1195C10.2182 35.0684 12.2526 34.1981 14.3774 33.5539C13.6993 30.8414 13.2811 27.7785 13.2133 24.5234Z" fill="#283618"/>
<path d="M9.49219 37.4305C12.0352 40.0187 15.2789 41.9062 18.9182 42.7878C17.2568 41.0585 15.8553 38.4251 14.8494 35.204C12.9846 35.7804 11.1875 36.5263 9.49219 37.4305Z" fill="#283618"/>
</svg>
