<svg width="47" height="47" viewBox="0 0 47 47" fill="none" xmlns="http://www.w3.org/2000/svg">
<g clip-path="url(#clip0_578_1427)">
<path d="M44.9323 43.0177H35.3572V35.3576C41.8682 34.7831 46.8473 29.4211 46.8473 22.91C46.8473 16.0159 41.2937 10.4623 34.3996 10.4623C32.4846 10.4623 30.7611 10.8453 29.2291 11.6113C27.5056 5.48327 21.952 0.887207 15.2494 0.887207C7.3978 0.887207 0.886719 7.39829 0.886719 15.2499C0.886719 22.91 6.82329 29.0381 14.2919 29.6126V43.0177H2.80174C1.65273 43.0177 0.886719 43.7838 0.886719 44.9328V46.8478H46.8473V44.9328C46.8473 43.7838 46.0813 43.0177 44.9323 43.0177ZM34.3996 12.3774C40.1447 12.3774 44.9323 17.1649 44.9323 22.91C44.9323 28.4636 40.7192 32.8681 35.3572 33.4426V28.0806L40.3362 23.1015C40.7192 22.7185 40.7192 22.144 40.3362 21.761C39.9532 21.378 39.3787 21.378 38.9957 21.761L35.3572 25.3995V19.0799C35.3572 18.5054 34.9742 18.1224 34.3996 18.1224C33.8251 18.1224 33.4421 18.5054 33.4421 19.0799V25.3995L29.8036 21.761C29.4206 21.378 28.8461 21.378 28.4631 21.761C28.0801 22.144 28.0801 22.7185 28.4631 23.1015L33.4421 28.0806V33.4426C29.2291 33.0596 25.782 30.1871 24.4415 26.357C27.6971 23.676 29.6121 19.8459 29.6121 15.2499C29.6121 14.6754 29.6121 14.1009 29.4206 13.5264C30.9526 12.7604 32.6761 12.3774 34.3996 12.3774ZM2.80174 15.2499C2.80174 8.3558 8.35531 2.80223 15.2494 2.80223C22.1435 2.80223 27.6971 8.3558 27.6971 15.2499C27.6971 21.761 22.718 27.123 16.2069 27.6975V22.3355L23.101 15.4414C23.484 15.0584 23.484 14.4839 23.101 14.1009C22.718 13.7179 22.1435 13.7179 21.7605 14.1009L16.2069 19.6544V9.50482C16.2069 8.93031 15.8239 8.5473 15.2494 8.5473C14.6749 8.5473 14.2919 8.93031 14.2919 9.50482V19.6544L8.73832 14.1009C8.35531 13.7179 7.78081 13.7179 7.3978 14.1009C7.0148 14.4839 7.0148 15.0584 7.3978 15.4414L14.2919 22.3355V27.6975C7.78081 27.123 2.80174 21.761 2.80174 15.2499ZM16.2069 43.0177V29.6126C18.6964 29.4211 20.803 28.6551 22.9095 27.506C24.633 31.9106 28.6546 34.9746 33.4421 35.3576V43.0177H16.2069Z" fill="#283618"/>
</g>
<defs>
<clipPath id="clip0_578_1427">
<rect width="45.9606" height="45.9606" fill="white" transform="translate(0.886719 0.887207)"/>
</clipPath>
</defs>
</svg>
